<svg width="292" height="247" viewBox="0 0 292 247" fill="none" xmlns="http://www.w3.org/2000/svg">
<path d="M146.5 92.5C91.5 92.5 92.5 91.5 92.5 62C91.3334 73.8334 92.5 105 76 100L63.5 119.5C63.5 84.5 74.5 30 146.5 30C218.5 30 230 84.5 230 119.5L217.5 100C201 104 202.167 73.8333 201 62C201 91.5 201.5 92.5 146.5 92.5Z" fill="#FFE2B7"/>
<path fill-rule="evenodd" clip-rule="evenodd" d="M55.6037 156.185C57.6278 156.715 59.7753 157.001 62 157.001C66.6552 157.001 70.9728 155.752 74.528 153.621C78.4171 156.863 80.4016 162.344 79.2082 167.939C77.7604 174.727 72.1098 179.454 65.8819 179.581C69.1305 183.723 69.8077 189.782 67.1364 195.09C64.0774 201.169 57.6119 204.308 51.6515 203.057C57.7622 209.748 55.1894 220.808 53 226.501C48.6667 226.834 39.909 225.781 36 223.501C30 220.001 28.5 217.501 25 211.001C28.8684 206.273 37.5403 198.367 44.9806 199.29C41.1331 195.159 40.1626 188.627 43.018 182.953C45.5866 177.849 50.5569 174.817 55.6133 174.717C52.9934 171.45 51.8189 166.917 52.8022 162.307C53.2957 159.993 54.2774 157.919 55.6037 156.185Z" fill="#FFE2B7"/>
<path fill-rule="evenodd" clip-rule="evenodd" d="M219.974 154.445C223.216 156.07 226.982 157 231 157C233.757 157 236.395 156.562 238.827 155.763C240.469 157.638 241.683 159.983 242.251 162.645C243.234 167.255 242.06 171.788 239.44 175.055C244.496 175.155 249.467 178.187 252.035 183.291C254.891 188.965 253.92 195.497 250.073 199.628C257.513 198.705 266.185 206.61 270.053 211.338C266.553 217.839 265.053 220.338 259.053 223.838C255.144 226.119 246.387 227.172 242.053 226.838C239.864 221.146 237.291 210.085 243.402 203.395C237.441 204.645 230.976 201.507 227.917 195.428C225.246 190.119 225.923 184.061 229.171 179.919C222.943 179.792 217.293 175.065 215.845 168.277C214.709 162.953 216.451 157.732 219.974 154.445Z" fill="#FFE2B7"/>
</svg>
