<svg width="231" height="182" viewBox="0 0 231 182" fill="none" xmlns="http://www.w3.org/2000/svg">
<path d="M69.5903 49.6002C66.4362 47.6801 63.4528 43.9667 63.4528 38.5C49.7228 70.8695 42.3157 135.348 63.4528 181.5C50.9114 181.2 11.3367 178.88 3.05705 156.8C-7.29256 129.2 8.83715 32.1865 48.3982 12.8C74.5187 -7.60958e-06 88.3182 -1.07845e-05 115.424 1.98175e-08C142.531 -1.07647e-05 156.33 -5.70223e-06 182.45 12.8C222.012 32.1865 238.31 129.2 227.96 156.8C219.68 178.88 180.106 181.2 167.565 181.5C188.702 135.348 181.295 70.8695 167.565 38.5C167.565 43.9667 164.581 47.6801 161.427 49.6002C158.273 51.5202 130.702 55.2002 115.917 55.2002C101.132 55.2002 72.7445 51.5202 69.5903 49.6002Z" fill="#754114"/>
</svg>
