<svg width="209" height="115" viewBox="0 0 209 115" fill="none" xmlns="http://www.w3.org/2000/svg">
<path d="M72.4973 32.9141C93.637 23.3186 103.641 28.9159 106 32.9141V18.1781H96.5626C49.7532 15.1624 27.9844 51.1913 22.9511 69.5827C-3.85103 74.2434 2.0316 89.8018 8.32318 96.9985C13.9856 102.367 27.481 113.448 36.1634 114.819C44.8458 116.19 47.6456 109.45 47.9602 105.909C43.2415 108.307 41.3539 108.307 36.1634 103.51C30.9729 98.712 25.7823 91.1726 36.1634 86.3749C46.5445 81.5771 46.0726 75.0658 43.7133 71.6389C41.354 68.2119 38.0509 66.8411 41.354 61.7007C44.657 56.5602 61.1725 57.931 58.8131 48.6782C56.9256 41.2759 67.1495 35.0845 72.4973 32.9141Z" fill="#161515"/>
<path d="M69.4973 14.9141C90.637 5.31856 100.641 10.9159 103 14.9141V0.178108H93.5626C46.7532 -2.83763 24.9844 33.1913 19.9511 51.5827C-6.85103 56.2434 -0.9684 71.8018 5.32318 78.9985C10.9856 84.3674 24.481 95.4479 33.1634 96.8187C41.8458 98.1895 44.6456 91.4498 44.9602 87.9086C40.2415 90.3075 38.3539 90.3075 33.1634 85.5097C27.9729 80.712 22.7823 73.1726 33.1634 68.3749C43.5445 63.5771 43.0726 57.0658 40.7133 53.6389C38.354 50.2119 35.0509 48.8411 38.354 43.7007C41.657 38.5602 58.1725 39.931 55.8131 30.6782C53.9256 23.2759 64.1495 17.0845 69.4973 14.9141Z" fill="#161515"/>
<path d="M72.4973 23.9141C93.637 14.3186 103.641 19.9159 106 23.9141V9.17811H96.5626C49.7532 6.16237 27.9844 42.1913 22.9511 60.5827C-3.85103 65.2434 2.0316 80.8018 8.32318 87.9985C13.9856 93.3674 27.481 104.448 36.1634 105.819C44.8458 107.19 47.6456 100.45 47.9602 96.9086C43.2415 99.3075 41.3539 99.3075 36.1634 94.5097C30.9729 89.712 25.7823 82.1726 36.1634 77.3749C46.5445 72.5771 46.0726 66.0658 43.7133 62.6389C41.354 59.2119 38.0509 57.8411 41.354 52.7007C44.657 47.5602 61.1725 48.931 58.8131 39.6782C56.9256 32.2759 67.1495 26.0845 72.4973 23.9141Z" fill="#161515"/>
<path d="M136.503 31.9141C115.363 22.3186 105.359 27.9159 103 31.9141V17.1781H112.437C159.247 14.1624 181.016 50.1913 186.049 68.5827C212.851 73.2434 206.968 88.8018 200.677 95.9985C195.014 101.367 181.519 112.448 172.837 113.819C164.154 115.19 161.354 108.45 161.04 104.909C165.759 107.307 167.646 107.307 172.837 102.51C178.027 97.712 183.218 90.1726 172.837 85.3749C162.455 80.5771 162.927 74.0658 165.287 70.6389C167.646 67.2119 170.949 65.8411 167.646 60.7007C164.343 55.5602 147.828 56.931 150.187 47.6782C152.074 40.2759 141.851 34.0845 136.503 31.9141Z" fill="#161515"/>
<path d="M139.503 23.9141C118.363 14.3186 108.359 19.9159 106 23.9141V9.17811H115.437C162.247 6.16237 184.016 42.1913 189.049 60.5827C215.851 65.2434 209.968 80.8018 203.677 87.9985C198.014 93.3674 184.519 104.448 175.837 105.819C167.154 107.19 164.354 100.45 164.04 96.9086C168.759 99.3075 170.646 99.3075 175.837 94.5097C181.027 89.712 186.218 82.1726 175.837 77.3749C165.455 72.5771 165.927 66.0658 168.287 62.6389C170.646 59.2119 173.949 57.8411 170.646 52.7007C167.343 47.5602 150.828 48.931 153.187 39.6782C155.074 32.2759 144.851 26.0845 139.503 23.9141Z" fill="#161515"/>
<path d="M134.105 14.9141C111.323 5.31856 100.543 10.9159 98 14.9141V0.178108H108.17C158.615 -2.83763 182.075 33.1913 187.499 51.5827C216.383 56.2434 210.044 71.8018 203.263 78.9985C197.161 84.3674 182.618 95.4479 173.261 96.8187C163.904 98.1895 160.887 91.4498 160.548 87.9086C165.633 90.3075 167.667 90.3075 173.261 85.5097C178.854 80.712 184.448 73.1726 173.261 68.3749C162.073 63.5771 162.582 57.0658 165.125 53.6389C167.667 50.2119 171.227 48.8411 167.667 43.7007C164.107 38.5602 146.309 39.931 148.852 30.6782C150.886 23.2759 139.868 17.0845 134.105 14.9141Z" fill="#161515"/>
</svg>
