<svg width="198" height="101" viewBox="0 0 198 101" fill="none" xmlns="http://www.w3.org/2000/svg">
<g filter="url(#filter0_d_79_683)">
<path d="M148 4.29632C112.547 2.51891 90.2726 2.72631 49.5652 3.9712L49 18.1147C89.7074 16.8699 112.547 17.2226 148 19V4.29632Z" fill="#1B2581"/>
</g>
<g filter="url(#filter1_d_79_683)">
<path d="M63.4783 85.7893C63.4783 94.0298 51.3623 92.9998 51.3623 84.7594C51.3623 92.9998 39.2464 88.8796 39.2464 80.6392C39.2464 88.8796 27.6811 88.8796 27.6811 80.6392C27.6811 88.8796 16.1159 84.7593 16.1159 76.5188C16.1159 84.7593 4 80.6392 4 72.3987C6.5735 68.728 34.9003 33.9368 48.742 17H148.868L194 72.3987C194 80.6392 181.884 84.7594 181.884 76.5189C181.884 84.7594 170.319 88.8797 170.319 80.6392C170.319 88.8797 158.754 88.8797 158.754 80.6392C158.754 88.8797 146.638 92.9999 146.638 84.7595C146.638 92.9999 134.522 92.9999 134.522 84.7595C134.522 92.9999 122.957 94.0299 122.957 85.7894C122.957 94.0299 111.942 95.0601 111.942 86.8197C111.942 95.0601 99.8262 95.0601 99.8262 86.8197C99.8262 95.0601 87.1595 95.06 87.1595 86.8196C87.1595 95.06 75.0435 94.0298 75.0435 85.7893C75.0435 94.0298 63.4783 94.0298 63.4783 85.7893Z" fill="white"/>
</g>
<defs>
<filter id="filter0_d_79_683" x="45" y="0" width="107" height="24" filterUnits="userSpaceOnUse" color-interpolation-filters="sRGB">
<feFlood flood-opacity="0" result="BackgroundImageFix"/>
<feColorMatrix in="SourceAlpha" type="matrix" values="0 0 0 0 0 0 0 0 0 0 0 0 0 0 0 0 0 0 127 0" result="hardAlpha"/>
<feOffset dy="1"/>
<feGaussianBlur stdDeviation="2"/>
<feColorMatrix type="matrix" values="0 0 0 0 0 0 0 0 0 0 0 0 0 0 0 0 0 0 0.4 0"/>
<feBlend mode="soft-light" in2="BackgroundImageFix" result="effect1_dropShadow_79_683"/>
<feBlend mode="normal" in="SourceGraphic" in2="effect1_dropShadow_79_683" result="shape"/>
</filter>
<filter id="filter1_d_79_683" x="0" y="17" width="198" height="84" filterUnits="userSpaceOnUse" color-interpolation-filters="sRGB">
<feFlood flood-opacity="0" result="BackgroundImageFix"/>
<feColorMatrix in="SourceAlpha" type="matrix" values="0 0 0 0 0 0 0 0 0 0 0 0 0 0 0 0 0 0 127 0" result="hardAlpha"/>
<feOffset dy="4"/>
<feGaussianBlur stdDeviation="2"/>
<feColorMatrix type="matrix" values="0 0 0 0 1 0 0 0 0 0.603922 0 0 0 0 0.745098 0 0 0 0.3 0"/>
<feBlend mode="normal" in2="BackgroundImageFix" result="effect1_dropShadow_79_683"/>
<feBlend mode="normal" in="SourceGraphic" in2="effect1_dropShadow_79_683" result="shape"/>
</filter>
</defs>
</svg>
