<svg width="101" height="56" viewBox="0 0 101 56" fill="none" xmlns="http://www.w3.org/2000/svg">
<path d="M1.95053 0.222656C1.95053 19.9948 -2.29051 20.5613 6.5 55.5H45.1849V36.7816C45.1849 32.7762 46.9252 29.5208 50.9304 29.5208H51.0356C55.0408 29.5208 56.7961 32.7762 56.7961 36.7816V55.5H94.9995C103 20.5 100 17.9245 100 0.222656H1.95053Z" fill="white"/>
<path d="M1.95053 0.222656C1.95053 19.9948 -2.29051 20.5613 6.5 55.5H45.1849V36.7816C45.1849 32.7762 46.9252 29.5208 50.9304 29.5208H51.0356C55.0408 29.5208 56.7961 32.7762 56.7961 36.7816V55.5H94.9995C103 20.5 100 17.9245 100 0.222656H1.95053Z" fill="white"/>
<path d="M1.95053 0.222656C1.95053 19.9948 -2.29051 20.5613 6.5 55.5H45.1849V36.7816C45.1849 32.7762 46.9252 29.5208 50.9304 29.5208H51.0356C55.0408 29.5208 56.7961 32.7762 56.7961 36.7816V55.5H94.9995C103 20.5 100 17.9245 100 0.222656H1.95053Z" fill="white"/>
<path d="M1.95053 0.222656C1.95053 19.9948 -2.29051 20.5613 6.5 55.5H45.1849V36.7816C45.1849 32.7762 46.9252 29.5208 50.9304 29.5208H51.0356C55.0408 29.5208 56.7961 32.7762 56.7961 36.7816V55.5H94.9995C103 20.5 100 17.9245 100 0.222656H1.95053Z" fill="white"/>
<path d="M1.95053 0.222656C1.95053 19.9948 -2.29051 20.5613 6.5 55.5H45.1849V36.7816C45.1849 32.7762 46.9252 29.5208 50.9304 29.5208H51.0356C55.0408 29.5208 56.7961 32.7762 56.7961 36.7816V55.5H94.9995C103 20.5 100 17.9245 100 0.222656H1.95053Z" fill="white"/>
</svg>
