<svg width="99" height="151" viewBox="0 0 99 151" fill="none" xmlns="http://www.w3.org/2000/svg">
<path d="M51.8398 145.028L66.8369 141.368C66.8369 141.368 70.9759 126.277 76.2399 105.756H52.9196L51.8398 145.028Z" fill="#FFC892"/>
<path d="M29.9281 141.038L46.4248 145.028L45.3001 105.756H20.7949C25.8789 126.142 29.9281 141.038 29.9281 141.038Z" fill="#FFC892"/>
<path d="M0 0C0 19.7712 11.9077 70.8343 20.696 105.771H45.2011L43.2216 36.5572C43.2216 32.552 44.9612 29.2968 48.9654 29.2968H49.0705C53.0747 29.2968 54.8293 32.552 54.8293 36.5572L52.9397 105.771H76.26C85.4382 69.9942 98.0207 17.7011 98.0207 0H0Z" fill="#FFC892"/>
<path d="M72.6708 138.568C73.995 139.233 75.1667 140.165 76.1116 141.307C77.0564 142.448 77.7538 143.774 78.1596 145.199C78.4265 146.183 78.622 147.186 78.7445 148.199C78.7835 148.512 78.7545 148.83 78.6592 149.131C78.5639 149.432 78.4046 149.709 78.1923 149.943C77.9801 150.176 77.7199 150.361 77.4295 150.485C77.1391 150.609 76.8254 150.668 76.5099 150.659H57.4787C55.9818 150.655 54.5475 150.058 53.4904 148.997C52.4333 147.937 51.8398 146.501 51.8398 145.004L72.6708 138.568Z" fill="#F998C7"/>
<path d="M24.0534 138.568C22.7292 139.233 21.5575 140.165 20.6126 141.307C19.6677 142.448 18.9704 143.774 18.5646 145.199C18.2977 146.183 18.1022 147.186 17.9797 148.199C17.9407 148.512 17.9697 148.83 18.065 149.131C18.1603 149.432 18.3196 149.709 18.5319 149.943C18.7441 150.176 19.0043 150.361 19.2947 150.485C19.5851 150.609 19.8988 150.668 20.2143 150.659H40.7301C42.2296 150.659 43.6677 150.063 44.728 149.003C45.7883 147.942 46.384 146.504 46.384 145.004L24.0534 138.568Z" fill="#F998C7"/>
</svg>
