<svg width="167" height="101" viewBox="0 0 167 101" fill="none" xmlns="http://www.w3.org/2000/svg">
<g filter="url(#filter0_d_79_665)">
<path d="M127 4.29632C91.5469 2.51891 69.2726 2.72631 28.5652 3.9712L28 18.1147C68.7074 16.8699 91.5469 17.2226 127 19V4.29632Z" fill="black"/>
</g>
<g filter="url(#filter1_d_79_665)">
<path d="M10.0766 64.9612C5.75558 63.5444 4.22511 56.8149 4 53.6273L28.6434 14.3129C51.4863 14.0768 102.303 13.7462 122.828 14.3129C143.353 14.8796 158.161 55.6344 163 75.9409L159.962 80.5453C152.873 79.4827 154.561 70.9823 144.771 61.7735C134.981 52.5648 137.006 80.5453 128.904 89.0457C125.487 92.6316 119.79 95.7752 108.987 89.0457C98.1848 82.3162 98.7161 53.6273 94.809 53.6273C90.4074 53.6273 88.9819 72.869 85.0682 72.869C74.6033 71.8064 80.2724 61.0088 70.1657 61.7735C61.2849 62.4455 66.7899 89.0457 48.5606 89.0457C30.3313 89.0457 29.6562 57.1691 28.6434 50.0854C27.6307 43.0018 15.4778 66.7321 10.0766 64.9612Z" fill="#F998C7"/>
</g>
<g filter="url(#filter2_df_79_665)">
<path d="M34.4494 24.3245C34.7495 23.1985 36.1141 22.7607 37.0132 23.502L39.2572 25.3519C39.5666 25.6069 39.9605 25.7365 40.3608 25.715L43.2649 25.559C44.4285 25.4965 45.2665 26.659 44.8394 27.7432L43.7735 30.4492C43.6265 30.8223 43.625 31.2369 43.7692 31.611L44.8149 34.3249C45.2339 35.4122 44.3873 36.5685 43.2241 36.4973L40.3214 36.3198C39.9212 36.2953 39.5264 36.422 39.2151 36.6747L36.9575 38.5079C36.0528 39.2424 34.6916 38.7945 34.3998 37.6663L33.6716 34.8506C33.5713 34.4624 33.3288 34.1261 32.9923 33.9082L30.5511 32.3273C29.573 31.6939 29.5784 30.2608 30.5612 29.6347L33.014 28.0721C33.3521 27.8566 33.5971 27.5221 33.7003 27.1347L34.4494 24.3245Z" fill="black"/>
</g>
<g filter="url(#filter3_df_79_665)">
<path d="M62.9496 37.9529C63.9372 37.3344 65.2336 37.9453 65.3853 39.1007L66.0481 44.1482C66.1003 44.5457 66.2999 44.9092 66.6073 45.1666L70.5101 48.4351C71.4035 49.1833 71.2231 50.6049 70.1712 51.1063L65.5757 53.2965C65.2138 53.469 64.9298 53.771 64.78 54.1429L62.8776 58.865C62.4421 59.9458 61.0343 60.2136 60.2325 59.368L56.7296 55.6742C56.4537 55.3832 56.0786 55.2065 55.6786 55.1789L50.6001 54.8287C49.4376 54.7486 48.7479 53.4924 49.3042 52.4685L51.7347 47.9953C51.9261 47.643 51.9783 47.2317 51.881 46.8428L50.6446 41.9043C50.3616 40.7739 51.3431 39.7298 52.4888 39.9425L57.4939 40.8719C57.8881 40.9451 58.2954 40.8676 58.6352 40.6548L62.9496 37.9529Z" fill="black"/>
</g>
<g filter="url(#filter4_df_79_665)">
<path d="M90.019 27.8651C90.6941 26.9152 92.1256 26.9825 92.7087 27.9915L94.2654 30.6855C94.466 31.0327 94.7896 31.2919 95.1722 31.4118L98.1413 32.3425C99.2532 32.6911 99.6316 34.0732 98.8522 34.9395L96.771 37.2528C96.5029 37.5508 96.3564 37.9387 96.3606 38.3396L96.393 41.4511C96.4051 42.6163 95.2074 43.4033 94.1427 42.9297L91.2998 41.6652C90.9335 41.5023 90.5193 41.4828 90.1393 41.6107L87.1903 42.603C86.0859 42.9746 84.9673 42.0788 85.0887 40.9198L85.4127 37.8251C85.4545 37.4263 85.345 37.0264 85.106 36.7045L83.2509 34.2062C82.5563 33.2707 83.0626 31.9301 84.2023 31.6874L87.2456 31.0393C87.6377 30.9558 87.9842 30.7281 88.2165 30.4013L90.019 27.8651Z" fill="black"/>
</g>
<g filter="url(#filter5_df_79_665)">
<path d="M117.718 34.6395C117.81 33.4778 119.073 32.8002 120.091 33.3664L125.343 36.2861C125.693 36.4809 126.104 36.537 126.494 36.4434L132.336 35.0402C133.47 34.7681 134.504 35.7597 134.28 36.9033L133.127 42.8005C133.05 43.194 133.123 43.602 133.333 43.9439L136.473 49.0672C137.081 50.0607 136.458 51.3512 135.301 51.4918L129.337 52.2167C128.938 52.2651 128.573 52.4611 128.313 52.766L124.411 57.3355C123.654 58.2217 122.234 58.0276 121.743 56.9709L119.21 51.5218C119.041 51.1582 118.742 50.8713 118.372 50.7179L112.82 48.4187C111.743 47.9728 111.489 46.5625 112.342 45.7688L116.742 41.6761C117.036 41.403 117.216 41.0297 117.247 40.63L117.718 34.6395Z" fill="black"/>
</g>
<defs>
<filter id="filter0_d_79_665" x="24" y="0" width="107" height="24" filterUnits="userSpaceOnUse" color-interpolation-filters="sRGB">
<feFlood flood-opacity="0" result="BackgroundImageFix"/>
<feColorMatrix in="SourceAlpha" type="matrix" values="0 0 0 0 0 0 0 0 0 0 0 0 0 0 0 0 0 0 127 0" result="hardAlpha"/>
<feOffset dy="1"/>
<feGaussianBlur stdDeviation="2"/>
<feColorMatrix type="matrix" values="0 0 0 0 0 0 0 0 0 0 0 0 0 0 0 0 0 0 0.4 0"/>
<feBlend mode="soft-light" in2="BackgroundImageFix" result="effect1_dropShadow_79_665"/>
<feBlend mode="normal" in="SourceGraphic" in2="effect1_dropShadow_79_665" result="shape"/>
</filter>
<filter id="filter1_d_79_665" x="0" y="14" width="167" height="87" filterUnits="userSpaceOnUse" color-interpolation-filters="sRGB">
<feFlood flood-opacity="0" result="BackgroundImageFix"/>
<feColorMatrix in="SourceAlpha" type="matrix" values="0 0 0 0 0 0 0 0 0 0 0 0 0 0 0 0 0 0 127 0" result="hardAlpha"/>
<feOffset dy="4"/>
<feGaussianBlur stdDeviation="2"/>
<feColorMatrix type="matrix" values="0 0 0 0 0.95 0 0 0 0 0.399792 0 0 0 0 0.595906 0 0 0 0.5 0"/>
<feBlend mode="normal" in2="BackgroundImageFix" result="effect1_dropShadow_79_665"/>
<feBlend mode="normal" in="SourceGraphic" in2="effect1_dropShadow_79_665" result="shape"/>
</filter>
<filter id="filter2_df_79_665" x="28.2202" y="22.3347" width="18.3329" height="18.9326" filterUnits="userSpaceOnUse" color-interpolation-filters="sRGB">
<feFlood flood-opacity="0" result="BackgroundImageFix"/>
<feColorMatrix in="SourceAlpha" type="matrix" values="0 0 0 0 0 0 0 0 0 0 0 0 0 0 0 0 0 0 127 0" result="hardAlpha"/>
<feOffset dy="0.800032"/>
<feGaussianBlur stdDeviation="0.800032"/>
<feColorMatrix type="matrix" values="0 0 0 0 0.883333 0 0 0 0 0.717708 0 0 0 0 0.717708 0 0 0 0.25 0"/>
<feBlend mode="multiply" in2="BackgroundImageFix" result="effect1_dropShadow_79_665"/>
<feBlend mode="normal" in="SourceGraphic" in2="effect1_dropShadow_79_665" result="shape"/>
<feGaussianBlur stdDeviation="0.200008" result="effect2_foregroundBlur_79_665"/>
</filter>
<filter id="filter3_df_79_665" x="47.5074" y="36.907" width="25.1767" height="25.3603" filterUnits="userSpaceOnUse" color-interpolation-filters="sRGB">
<feFlood flood-opacity="0" result="BackgroundImageFix"/>
<feColorMatrix in="SourceAlpha" type="matrix" values="0 0 0 0 0 0 0 0 0 0 0 0 0 0 0 0 0 0 127 0" result="hardAlpha"/>
<feOffset dy="0.800032"/>
<feGaussianBlur stdDeviation="0.800032"/>
<feColorMatrix type="matrix" values="0 0 0 0 0.883333 0 0 0 0 0.717708 0 0 0 0 0.717708 0 0 0 0.25 0"/>
<feBlend mode="multiply" in2="BackgroundImageFix" result="effect1_dropShadow_79_665"/>
<feBlend mode="normal" in="SourceGraphic" in2="effect1_dropShadow_79_665" result="shape"/>
<feGaussianBlur stdDeviation="0.200008" result="effect2_foregroundBlur_79_665"/>
</filter>
<filter id="filter4_df_79_665" x="81.3335" y="26.3914" width="19.5302" height="19.079" filterUnits="userSpaceOnUse" color-interpolation-filters="sRGB">
<feFlood flood-opacity="0" result="BackgroundImageFix"/>
<feColorMatrix in="SourceAlpha" type="matrix" values="0 0 0 0 0 0 0 0 0 0 0 0 0 0 0 0 0 0 127 0" result="hardAlpha"/>
<feOffset dy="0.800032"/>
<feGaussianBlur stdDeviation="0.800032"/>
<feColorMatrix type="matrix" values="0 0 0 0 0.883333 0 0 0 0 0.717708 0 0 0 0 0.717708 0 0 0 0.25 0"/>
<feBlend mode="multiply" in2="BackgroundImageFix" result="effect1_dropShadow_79_665"/>
<feBlend mode="normal" in="SourceGraphic" in2="effect1_dropShadow_79_665" result="shape"/>
<feGaussianBlur stdDeviation="0.200008" result="effect2_foregroundBlur_79_665"/>
</filter>
<filter id="filter5_df_79_665" x="110.232" y="32.3621" width="28.079" height="27.9345" filterUnits="userSpaceOnUse" color-interpolation-filters="sRGB">
<feFlood flood-opacity="0" result="BackgroundImageFix"/>
<feColorMatrix in="SourceAlpha" type="matrix" values="0 0 0 0 0 0 0 0 0 0 0 0 0 0 0 0 0 0 127 0" result="hardAlpha"/>
<feOffset dy="0.800032"/>
<feGaussianBlur stdDeviation="0.800032"/>
<feColorMatrix type="matrix" values="0 0 0 0 0.883333 0 0 0 0 0.717708 0 0 0 0 0.717708 0 0 0 0.25 0"/>
<feBlend mode="multiply" in2="BackgroundImageFix" result="effect1_dropShadow_79_665"/>
<feBlend mode="normal" in="SourceGraphic" in2="effect1_dropShadow_79_665" result="shape"/>
<feGaussianBlur stdDeviation="0.200008" result="effect2_foregroundBlur_79_665"/>
</filter>
</defs>
</svg>
