<svg width="99" height="106" viewBox="0 0 99 106" fill="none" xmlns="http://www.w3.org/2000/svg">
<path d="M0 0C0 19.7721 11.9113 70.8376 20.7021 105.776H45.2146L43.2344 36.5589C43.2344 32.5535 44.9745 29.2981 48.9799 29.2981H49.0851C53.0905 29.2981 54.8456 32.5535 54.8456 36.5589L52.9554 105.776H76.2826C85.4635 69.9975 98.0498 17.7019 98.0498 0H0Z" fill="#4E7191"/>
<path d="M53.3062 0H49.1641V29H53.3062V0Z" fill="#8B868F" fill-opacity="0.66"/>
<path d="M92.9447 23.7794C79.4276 23.7794 73.8909 12.0414 72.8691 5.82706L77.0113 5.15039C77.1079 5.73039 79.6347 19.6228 93 19.6228L92.9447 23.7794Z" fill="#8B868F" fill-opacity="0.66"/>
<path d="M4 23.7793V19.6365C17.3653 19.6365 19.8919 5.74406 20.0024 5.16406L24.0754 5.84074C23.0537 12.0412 17.5171 23.7793 4 23.7793Z" fill="#8B868F" fill-opacity="0.66"/>
</svg>
