<svg width="50" height="106" viewBox="0 0 99 106" fill="none" xmlns="http://www.w3.org/2000/svg">
<g filter="url(#filter0_d_79_665)">
<path d="M76.5992 2.7817C55.3273 1.71526 41.9628 1.83969 17.5383 2.58663L17.1992 11.0728C41.6237 10.3258 55.3273 10.5375 76.5992 11.6039V2.7817Z" fill="black"/>
</g>
<g filter="url(#filter1_d_79_665)">
<path d="M6.44477 39.1802C3.85218 38.3302 2.93389 34.2925 2.79883 32.3799L17.5849 8.79126C31.2906 8.64958 61.7808 8.45124 74.0957 8.79126C86.4106 9.13127 95.2956 33.5841 98.1988 45.7681L96.3759 48.5307C92.1224 47.8932 93.1351 42.7929 87.2613 37.2676C81.3874 31.7424 82.6027 48.5307 77.7415 53.631C75.6909 55.7825 72.2727 57.6686 65.7912 53.631C59.3097 49.5933 59.6285 32.3799 57.2842 32.3799C54.6433 32.3799 53.788 43.9249 51.4398 43.9249C45.1608 43.2874 48.5623 36.8088 42.4982 37.2676C37.1697 37.6708 40.4728 53.631 29.5352 53.631C18.5976 53.631 18.1925 34.505 17.5849 30.2548C16.9772 26.0046 9.68552 40.2428 6.44477 39.1802Z" fill="#F998C7"/>
</g>
<g filter="url(#filter2_df_79_665)">
<path d="M21.0677 14.7998C21.2478 14.1242 22.0665 13.8615 22.606 14.3063L23.9524 15.4162C24.138 15.5692 24.3743 15.647 24.6145 15.6341L26.357 15.5405C27.0551 15.503 27.5579 16.2005 27.3017 16.851L26.6621 18.4746C26.574 18.6984 26.573 18.9472 26.6595 19.1717L27.287 20.8C27.5384 21.4524 27.0304 22.1462 26.3325 22.1035L24.5909 21.9969C24.3508 21.9822 24.1139 22.0582 23.9271 22.2099L22.5725 23.3098C22.0297 23.7505 21.213 23.4818 21.0379 22.8049L20.601 21.1154C20.5408 20.8825 20.3953 20.6807 20.1934 20.55L18.7287 19.6014C18.1419 19.2214 18.1451 18.3616 18.7347 17.9859L20.2064 17.0483C20.4093 16.9191 20.5563 16.7183 20.6182 16.4859L21.0677 14.7998Z" fill="black"/>
</g>
<g filter="url(#filter3_df_79_665)">
<path d="M38.1698 22.9757C38.7623 22.6046 39.5401 22.9711 39.6312 23.6643L40.0289 26.6928C40.0602 26.9313 40.1799 27.1494 40.3644 27.3039L42.7061 29.265C43.2421 29.7139 43.1339 30.5669 42.5027 30.8677L39.7454 32.1818C39.5283 32.2853 39.3579 32.4665 39.268 32.6897L38.1266 35.5229C37.8653 36.1714 37.0206 36.332 36.5395 35.8247L34.4377 33.6084C34.2722 33.4338 34.0472 33.3278 33.8072 33.3112L30.7601 33.1011C30.0626 33.0531 29.6487 32.2993 29.9825 31.685L31.4408 29.0011C31.5557 28.7897 31.587 28.5429 31.5286 28.3096L30.7868 25.3465C30.617 24.6683 31.2059 24.0418 31.8933 24.1694L34.8963 24.727C35.1329 24.771 35.3772 24.7245 35.5811 24.5968L38.1698 22.9757Z" fill="black"/>
</g>
<g filter="url(#filter4_df_79_665)">
<path d="M54.4087 16.9222C54.8137 16.3523 55.6726 16.3926 56.0225 16.998L56.9565 18.6145C57.0769 18.8227 57.271 18.9783 57.5006 19.0502L59.282 19.6086C59.9492 19.8178 60.1762 20.6471 59.7086 21.1668L58.4599 22.5548C58.299 22.7336 58.2111 22.9663 58.2136 23.2069L58.233 25.0738C58.2403 25.7729 57.5217 26.2451 56.8829 25.961L55.1772 25.2023C54.9574 25.1045 54.7088 25.0928 54.4808 25.1695L52.7115 25.7649C52.0488 25.9879 51.3777 25.4504 51.4505 24.755L51.6449 22.8982C51.67 22.6589 51.6043 22.419 51.4609 22.2258L50.3478 20.7269C49.931 20.1655 50.2348 19.3612 50.9186 19.2156L52.7446 18.8267C52.9799 18.7766 53.1878 18.64 53.3272 18.4439L54.4087 16.9222Z" fill="black"/>
</g>
<g filter="url(#filter5_df_79_665)">
<path d="M71.0311 20.9868C71.0859 20.2898 71.8435 19.8832 72.4546 20.223L75.6056 21.9748C75.8159 22.0917 76.0624 22.1253 76.2963 22.0692L79.8019 21.2273C80.4817 21.064 81.1024 21.6589 80.9682 22.3451L80.2759 25.8834C80.2297 26.1195 80.2738 26.3644 80.3995 26.5695L82.2835 29.6434C82.6488 30.2396 82.2748 31.0138 81.5808 31.0982L78.0019 31.5332C77.7631 31.5622 77.5439 31.6798 77.3877 31.8627L75.0464 34.6044C74.5924 35.1361 73.7405 35.0197 73.4458 34.3857L71.9262 31.1162C71.8248 30.898 71.6452 30.7259 71.423 30.6339L68.092 29.2543C67.4461 28.9868 67.2936 28.1406 67.8055 27.6644L70.4452 25.2088C70.6214 25.0449 70.7296 24.8209 70.7484 24.5811L71.0311 20.9868Z" fill="black"/>
</g>
<defs>
<filter id="filter0_d_79_665" x="14.7992" y="0.203906" width="64.2004" height="14.3996" filterUnits="userSpaceOnUse" color-interpolation-filters="sRGB">
<feFlood flood-opacity="0" result="BackgroundImageFix"/>
<feColorMatrix in="SourceAlpha" type="matrix" values="0 0 0 0 0 0 0 0 0 0 0 0 0 0 0 0 0 0 127 0" result="hardAlpha"/>
<feOffset dy="0.6"/>
<feGaussianBlur stdDeviation="1.2"/>
<feColorMatrix type="matrix" values="0 0 0 0 0 0 0 0 0 0 0 0 0 0 0 0 0 0 0.4 0"/>
<feBlend mode="soft-light" in2="BackgroundImageFix" result="effect1_dropShadow_79_665"/>
<feBlend mode="normal" in="SourceGraphic" in2="effect1_dropShadow_79_665" result="shape"/>
</filter>
<filter id="filter1_d_79_665" x="0.398828" y="8.60352" width="100.2" height="52.2004" filterUnits="userSpaceOnUse" color-interpolation-filters="sRGB">
<feFlood flood-opacity="0" result="BackgroundImageFix"/>
<feColorMatrix in="SourceAlpha" type="matrix" values="0 0 0 0 0 0 0 0 0 0 0 0 0 0 0 0 0 0 127 0" result="hardAlpha"/>
<feOffset dy="2.4"/>
<feGaussianBlur stdDeviation="1.2"/>
<feColorMatrix type="matrix" values="0 0 0 0 0.95 0 0 0 0 0.399792 0 0 0 0 0.595906 0 0 0 0.5 0"/>
<feBlend mode="normal" in2="BackgroundImageFix" result="effect1_dropShadow_79_665"/>
<feBlend mode="normal" in="SourceGraphic" in2="effect1_dropShadow_79_665" result="shape"/>
</filter>
<filter id="filter2_df_79_665" x="17.331" y="13.6059" width="10.9982" height="11.3595" filterUnits="userSpaceOnUse" color-interpolation-filters="sRGB">
<feFlood flood-opacity="0" result="BackgroundImageFix"/>
<feColorMatrix in="SourceAlpha" type="matrix" values="0 0 0 0 0 0 0 0 0 0 0 0 0 0 0 0 0 0 127 0" result="hardAlpha"/>
<feOffset dy="0.480019"/>
<feGaussianBlur stdDeviation="0.480019"/>
<feColorMatrix type="matrix" values="0 0 0 0 0.883333 0 0 0 0 0.717708 0 0 0 0 0.717708 0 0 0 0.25 0"/>
<feBlend mode="multiply" in2="BackgroundImageFix" result="effect1_dropShadow_79_665"/>
<feBlend mode="normal" in="SourceGraphic" in2="effect1_dropShadow_79_665" result="shape"/>
<feGaussianBlur stdDeviation="0.120005" result="effect2_foregroundBlur_79_665"/>
</filter>
<filter id="filter3_df_79_665" x="28.9052" y="22.3481" width="15.1056" height="15.217" filterUnits="userSpaceOnUse" color-interpolation-filters="sRGB">
<feFlood flood-opacity="0" result="BackgroundImageFix"/>
<feColorMatrix in="SourceAlpha" type="matrix" values="0 0 0 0 0 0 0 0 0 0 0 0 0 0 0 0 0 0 127 0" result="hardAlpha"/>
<feOffset dy="0.480019"/>
<feGaussianBlur stdDeviation="0.480019"/>
<feColorMatrix type="matrix" values="0 0 0 0 0.883333 0 0 0 0 0.717708 0 0 0 0 0.717708 0 0 0 0.25 0"/>
<feBlend mode="multiply" in2="BackgroundImageFix" result="effect1_dropShadow_79_665"/>
<feBlend mode="normal" in="SourceGraphic" in2="effect1_dropShadow_79_665" result="shape"/>
<feGaussianBlur stdDeviation="0.120005" result="effect2_foregroundBlur_79_665"/>
</filter>
<filter id="filter4_df_79_665" x="49.1982" y="16.0376" width="11.717" height="11.4474" filterUnits="userSpaceOnUse" color-interpolation-filters="sRGB">
<feFlood flood-opacity="0" result="BackgroundImageFix"/>
<feColorMatrix in="SourceAlpha" type="matrix" values="0 0 0 0 0 0 0 0 0 0 0 0 0 0 0 0 0 0 127 0" result="hardAlpha"/>
<feOffset dy="0.480019"/>
<feGaussianBlur stdDeviation="0.480019"/>
<feColorMatrix type="matrix" values="0 0 0 0 0.883333 0 0 0 0 0.717708 0 0 0 0 0.717708 0 0 0 0.25 0"/>
<feBlend mode="multiply" in2="BackgroundImageFix" result="effect1_dropShadow_79_665"/>
<feBlend mode="normal" in="SourceGraphic" in2="effect1_dropShadow_79_665" result="shape"/>
<feGaussianBlur stdDeviation="0.120005" result="effect2_foregroundBlur_79_665"/>
</filter>
<filter id="filter5_df_79_665" x="66.54" y="19.6215" width="16.8459" height="16.7599" filterUnits="userSpaceOnUse" color-interpolation-filters="sRGB">
<feFlood flood-opacity="0" result="BackgroundImageFix"/>
<feColorMatrix in="SourceAlpha" type="matrix" values="0 0 0 0 0 0 0 0 0 0 0 0 0 0 0 0 0 0 127 0" result="hardAlpha"/>
<feOffset dy="0.480019"/>
<feGaussianBlur stdDeviation="0.480019"/>
<feColorMatrix type="matrix" values="0 0 0 0 0.883333 0 0 0 0 0.717708 0 0 0 0 0.717708 0 0 0 0.25 0"/>
<feBlend mode="multiply" in2="BackgroundImageFix" result="effect1_dropShadow_79_665"/>
<feBlend mode="normal" in="SourceGraphic" in2="effect1_dropShadow_79_665" result="shape"/>
<feGaussianBlur stdDeviation="0.120005" result="effect2_foregroundBlur_79_665"/>
</filter>
</defs>
</svg>
