<svg width="220" height="449" viewBox="0 0 220 449" fill="none" xmlns="http://www.w3.org/2000/svg">
<path d="M184.828 240.937C184.156 239.69 178.457 245.033 175.851 247.786C175.851 247.786 177.589 245.892 183.271 244.715C188.953 243.538 181.091 236.223 181.091 236.223C179.759 234.68 179.711 234.475 178.835 233.395C178.329 232.337 177.403 231.372 176.831 230.414C176.271 229.492 175.655 228.605 174.986 227.759C170.575 222.158 165.151 217.433 158.994 213.828C156.728 212.448 154.39 211.188 151.99 210.054C149.812 209.104 147.953 208.347 146.404 207.701L141.456 206.003C140.972 205.846 140.477 205.72 139.977 205.625C137.868 205.119 134.672 202.999 133.538 205.438C131.401 205.821 129.366 206.643 127.561 207.851C126.026 208.918 124.766 210.331 123.882 211.976C122.998 213.621 122.516 215.45 122.475 217.314C122.392 220.972 123.609 224.538 125.911 227.379C126.918 228.72 128.154 229.873 129.561 230.786C130.922 231.729 132.461 232.386 134.085 232.718L137.571 233.575C138.639 233.942 139.963 234.314 141.43 234.832C142.897 235.351 144.52 236.009 146.15 236.85C149.628 238.478 152.789 240.708 155.486 243.436C155.797 243.739 156.058 244.152 156.308 244.507C156.847 244.965 157.487 246.379 158.446 246.763C158.616 247.098 161.724 250.014 161.724 250.014C161.724 250.014 162.876 251.09 162.844 251.427C162.844 251.427 192.361 280.164 193.44 281.078L198.067 278.108L206.817 272.951C213.607 268.313 190.288 247.517 189.536 246.574C188.407 245.161 185.996 242.447 184.828 240.937Z" fill="#FFC892"/>
<path d="M30.453 245.247C31.0197 243.949 37.1386 248.806 39.9622 251.336C39.9622 251.336 38.0749 249.591 32.3153 248.885C26.5557 248.179 33.7889 240.242 33.7889 240.242C34.9903 238.595 35.0214 238.387 35.8058 237.239C36.2228 236.142 37.0657 235.104 37.5576 234.103C38.04 233.138 38.5811 232.203 39.1777 231.305C43.1131 225.36 48.1302 220.205 53.97 216.106C56.1154 214.545 58.3419 213.097 60.6405 211.769C62.7328 210.644 64.5237 209.736 66.0139 208.965L70.8053 206.865C71.2755 206.67 71.7577 206.503 72.2488 206.368C74.309 205.69 77.3199 203.314 78.65 205.652C80.8115 205.858 82.9075 206.51 84.8057 207.565C86.4228 208.502 87.7955 209.807 88.8117 211.374C89.8279 212.94 90.4586 214.723 90.6525 216.578C91.0361 220.217 90.1161 223.871 88.0557 226.892C87.1619 228.31 86.0255 229.561 84.698 230.587C83.4193 231.639 81.9394 232.42 80.3478 232.884L76.9444 234.025C75.9103 234.479 74.621 234.958 73.2018 235.595C71.7826 236.233 70.2194 237.023 68.6633 237.994C65.3312 239.903 62.3647 242.385 59.9007 245.326C59.6155 245.653 59.3892 246.087 59.1699 246.461C58.6699 246.961 58.1484 248.423 57.2246 248.885C57.082 249.233 54.2246 252.395 54.2246 252.395C54.2246 252.395 53.1654 253.561 53.2246 253.895C53.2246 253.895 26.1699 284.961 25.1699 285.961L20.3149 283.381L11.1699 278.961C4.02196 274.897 25.5519 252.254 26.2242 251.253C27.2326 249.751 29.4122 246.848 30.453 245.247Z" fill="#FFC892"/>
<path d="M138.015 203.409C128.627 201.324 124.652 198.789 109.52 198.774C94.3883 198.759 88.8993 201.324 79.5262 203.424C73.5274 204.744 68.8483 211.074 68.8483 217.15L71.8477 261.957C64.219 272.058 60.0627 284.356 60 297.014H158.021C158.021 278.023 145.678 261.957 145.678 261.957L148.678 217.15C148.693 211.074 143.954 204.669 138.015 203.409Z" fill="#FFC892"/>
<path opacity="0.2" d="M109.435 289.057C110.678 289.057 111.685 288.049 111.685 286.807C111.685 285.564 110.678 284.557 109.435 284.557C108.193 284.557 107.186 285.564 107.186 286.807C107.186 288.049 108.193 289.057 109.435 289.057Z" fill="#443425"/>
<path d="M108.823 195.752C117.437 195.752 124.42 193.422 124.42 190.547C124.42 187.672 117.437 185.342 108.823 185.342C100.209 185.342 93.2266 187.672 93.2266 190.547C93.2266 193.422 100.209 195.752 108.823 195.752Z" fill="#E8AC70"/>
<path d="M194.848 283.433C196.506 285.401 197.412 286.567 197.412 286.567C198.891 288.474 200.991 289.802 203.347 290.322C205.704 290.842 208.168 290.521 210.312 289.414C214.956 286.892 216.483 280.568 213.047 275.376C213.047 275.376 212.097 273.935 210.368 271.476C209.73 270.58 208.978 269.542 208.099 268.39L192.737 280.999C193.543 281.896 194.249 282.725 194.848 283.433Z" fill="url(#paint0_linear_47_262)"/>
<path d="M24.8531 286.433C23.1949 288.401 22.2896 289.567 22.2896 289.567C20.8102 291.474 18.7103 292.802 16.3539 293.322C13.9975 293.842 11.5333 293.521 9.3887 292.414C4.7453 289.892 3.21782 283.568 6.65397 278.376C6.65397 278.376 7.60422 276.935 9.33319 274.476C9.97165 273.58 10.7233 272.542 11.6017 271.39L26.9645 283.999C26.1583 284.896 25.4524 285.725 24.8531 286.433Z" fill="url(#paint1_linear_47_262)"/>
<path d="M112 440.272L126.997 436.612C126.997 436.612 131.136 421.521 136.4 401H113.08L112 440.272Z" fill="#FFC892"/>
<path d="M90.1329 436.282L106.63 440.272L105.505 401H80.9998C86.0838 421.386 90.1329 436.282 90.1329 436.282Z" fill="#FFC892"/>
<path d="M60 295C60 314.771 71.9077 365.834 80.696 400.771H105.201L103.222 331.557C103.222 327.552 104.961 324.297 108.965 324.297H109.07C113.075 324.297 114.829 327.552 114.829 331.557L112.94 400.771H136.26C145.438 364.994 158.021 312.701 158.021 295H60Z" fill="#FFC892"/>
<path d="M133.095 433.865C134.419 434.53 135.591 435.462 136.535 436.604C137.48 437.745 138.178 439.07 138.583 440.496C138.85 441.48 139.046 442.483 139.168 443.496C139.207 443.809 139.178 444.127 139.083 444.428C138.988 444.729 138.828 445.006 138.616 445.239C138.404 445.473 138.144 445.658 137.853 445.782C137.563 445.905 137.249 445.965 136.934 445.956H117.903C116.406 445.952 114.971 445.354 113.914 444.294C112.857 443.234 112.264 441.798 112.264 440.301L133.095 433.865Z" fill="#F998C7"/>
<path d="M84.4772 433.865C83.153 434.53 81.9813 435.462 81.0365 436.604C80.0916 437.745 79.3942 439.07 78.9885 440.496C78.7215 441.48 78.526 442.483 78.4035 443.496C78.3645 443.809 78.3936 444.127 78.4889 444.428C78.5842 444.729 78.7435 445.006 78.9557 445.239C79.1679 445.473 79.4282 445.658 79.7185 445.782C80.0089 445.905 80.3226 445.965 80.6381 445.956H101.154C102.653 445.956 104.092 445.36 105.152 444.3C106.212 443.239 106.808 441.8 106.808 440.301L84.4772 433.865Z" fill="#F998C7"/>
<path d="M124.449 193.815L125 200.04C125 200.04 118.375 212.773 109.5 212.773C100.625 212.773 94 200.04 94 200.04L94.5508 193.815C94.6959 192.157 95.4042 190.617 96.5367 189.499C97.6691 188.382 99.1439 187.766 100.671 187.774H118.39C119.907 187.783 121.366 188.406 122.486 189.522C123.605 190.638 124.305 192.168 124.449 193.815V193.815Z" fill="#FFC892"/>
<ellipse cx="44.6" cy="138.973" rx="17.6" ry="15.2" fill="#FBB985"/>
<ellipse cx="179.799" cy="138.973" rx="17.6" ry="15.2" fill="#FBB985"/>
<path fill-rule="evenodd" clip-rule="evenodd" d="M111.2 62.7734C86.3999 62.7734 45.2 71.7334 45.2 128.373C45.2871 128.373 45.3732 128.373 45.4584 128.373C43.9822 137.218 43.5276 145.993 44.5554 153.573C47.1154 172.453 71.4887 186.773 83.3553 191.573C87.222 193.173 98.3153 196.373 111.755 196.373C125.195 196.373 136.289 193.173 140.155 191.573C152.022 186.773 176.395 172.453 178.955 153.573C179.991 145.93 179.513 137.079 178 128.167C177.899 71.7116 136.77 62.7734 112 62.7734H111.2Z" fill="#FFC892"/>
<ellipse cx="81.6" cy="128.373" rx="11.6" ry="15.6" fill="#8C501D"/>
<ellipse cx="142.401" cy="128.373" rx="11.6" ry="15.6" fill="#8C501D"/>
<circle cx="78.4" cy="121.974" r="4.4" fill="white"/>
<circle cx="139.201" cy="121.974" r="4.4" fill="white"/>
<ellipse cx="86.4004" cy="134.373" rx="2" ry="2.4" fill="white"/>
<ellipse cx="147.199" cy="134.373" rx="2" ry="2.4" fill="white"/>
<path d="M69.1992 115.174C69.1992 115.707 69.7592 117.734 70.3992 118.374C71.1992 119.174 72.3992 119.574 73.5992 119.174" stroke="#8C501D" stroke-width="1.6" stroke-linecap="round"/>
<path d="M130 115.174C130 115.707 130.56 117.734 131.2 118.374C132 119.174 133.2 119.574 134.4 119.174" stroke="#8C501D" stroke-width="1.6" stroke-linecap="round"/>
<ellipse cx="112.6" cy="147.974" rx="7.2" ry="4.4" fill="#FF7E36"/>
<path d="M87 160.773C89.3333 163.44 95.4 168.773 101 168.773C106.6 168.773 111 165.44 112.5 163.773C114 165.44 118.4 168.773 124 168.773C129.6 168.773 135.667 163.44 138 160.773" stroke="#8C501D" stroke-width="3" stroke-linecap="round" stroke-linejoin="round"/>
<defs>
<linearGradient id="paint0_linear_47_262" x1="165.345" y1="268.693" x2="202.456" y2="287.526" gradientUnits="userSpaceOnUse">
<stop stop-color="#FFC892"/>
<stop offset="1" stop-color="#FFC892"/>
</linearGradient>
<linearGradient id="paint1_linear_47_262" x1="54.3566" y1="271.693" x2="17.2453" y2="290.526" gradientUnits="userSpaceOnUse">
<stop stop-color="#FFC892"/>
<stop offset="1" stop-color="#FFC892"/>
</linearGradient>
</defs>
</svg>
