<svg width="220" height="112" viewBox="0 0 220 112" fill="none" xmlns="http://www.w3.org/2000/svg">
<path d="M184.828 53.1636C184.156 51.9165 178.457 57.2595 175.851 60.0129C175.851 60.0129 177.589 58.1188 183.271 56.9417C188.953 55.7645 181.091 48.4493 181.091 48.4493C179.759 46.9066 179.711 46.7018 178.835 45.622C178.329 44.5631 177.403 43.5982 176.831 42.6408C176.271 41.7189 175.655 40.832 174.986 39.9852C170.575 34.3846 165.151 29.6597 158.994 26.0544C156.728 24.6745 154.39 23.4148 151.99 22.2807C149.812 21.331 147.953 20.5736 146.404 19.9279L141.456 18.2291C140.972 18.0727 140.477 17.9465 139.977 17.8518C137.868 17.3456 134.672 15.2257 133.538 17.665C131.401 18.0481 129.366 18.8697 127.561 20.0774C126.026 21.1444 124.766 22.558 123.882 24.2026C122.998 25.8472 122.516 27.6762 122.475 29.5401C122.392 33.1983 123.609 36.7643 125.911 39.6059C126.918 40.9461 128.154 42.0991 129.561 43.0126C130.922 43.9556 132.461 44.6128 134.085 44.9441L137.571 45.8012C138.639 46.1686 139.963 46.5403 141.43 47.0588C142.897 47.5774 144.52 48.2359 146.15 49.0761C149.628 50.7047 152.789 52.9345 155.486 55.6626C155.797 55.9651 156.058 56.3789 156.308 56.7339C156.847 57.1911 157.487 58.6057 158.446 58.9896C158.616 59.3246 161.724 62.2409 161.724 62.2409C161.724 62.2409 162.876 63.3167 162.844 63.6536C162.844 63.6536 192.361 92.3905 193.44 93.3049L198.067 90.3348L206.817 85.1776C213.607 80.54 190.288 59.7433 189.536 58.8009C188.407 57.3872 185.996 54.6735 184.828 53.1636Z" fill="#FFC892"/>
<g filter="url(#filter0_d_64_263)">
<path d="M30.453 57.474C31.0197 56.1759 37.1386 61.0323 39.9622 63.5622C39.9622 63.5622 38.0749 61.8172 32.3153 61.1113C26.5557 60.4053 33.7889 52.4685 33.7889 52.4685C34.9903 50.8214 35.0214 50.6134 35.8058 49.4652C36.2228 48.3683 37.0657 47.3306 37.5576 46.3294C38.04 45.3645 38.5811 44.43 39.1777 43.5311C43.1131 37.5868 48.1302 32.432 53.97 28.3327C56.1154 26.7711 58.3419 25.3235 60.6405 23.9959C62.7328 22.8704 64.5237 21.9627 66.0139 21.1919L70.8053 19.092C71.2755 18.8963 71.7577 18.7299 72.2488 18.5944C74.309 17.9165 77.3199 15.541 78.65 17.8788C80.8115 18.0849 82.9075 18.7364 84.8057 19.7917C86.4228 20.7289 87.7955 22.034 88.8117 23.6004C89.8279 25.1667 90.4586 26.9499 90.6525 28.8041C91.0361 32.4431 90.1161 36.0971 88.0557 39.1183C87.1619 40.5368 86.0255 41.7875 84.698 42.8136C83.4193 43.8653 81.9394 44.6468 80.3478 45.1106L76.9444 46.2513C75.9103 46.7052 74.621 47.1846 73.2018 47.822C71.7826 48.4594 70.2194 49.2491 68.6633 50.2205C65.3312 52.1295 62.3647 54.6116 59.9007 57.5522C59.6155 57.8793 59.3892 58.3131 59.1699 58.6875C58.6699 59.1875 58.1484 60.6498 57.2246 61.1113C57.082 61.4592 54.2246 64.6211 54.2246 64.6211C54.2246 64.6211 53.1654 65.788 53.2246 66.1211C53.2246 66.1211 26.1699 97.1875 25.1699 98.1875L20.3149 95.6078L11.1699 91.1875C4.02196 87.1239 25.5519 64.4803 26.2242 63.4793C27.2326 61.9777 29.4122 59.0748 30.453 57.474Z" fill="#FFC892"/>
</g>
<path d="M140.386 15.7655C130.712 13.6218 126.617 11.0155 111.025 11.0001C95.4335 10.9846 89.7777 13.6218 80.1197 15.7809C73.9385 17.1381 69.1172 23.6463 69.1172 29.8923L72.2078 75.9583C64.3472 86.3422 60.0646 98.986 60 112H161C161 92.4755 148.282 75.9583 148.282 75.9583L151.373 29.8923C151.388 23.6463 146.505 17.061 140.386 15.7655Z" fill="#FFC892"/>
<path opacity="0.2" d="M109.435 101.283C110.678 101.283 111.685 100.276 111.685 99.0333C111.685 97.7906 110.678 96.7832 109.435 96.7832C108.193 96.7832 107.186 97.7906 107.186 99.0333C107.186 100.276 108.193 101.283 109.435 101.283Z" fill="#443425"/>
<path d="M194.848 95.6595C196.506 97.628 197.412 98.794 197.412 98.794C198.891 100.7 200.991 102.029 203.347 102.549C205.704 103.069 208.168 102.747 210.312 101.64C214.956 99.1183 216.483 92.7946 213.047 87.6022C213.047 87.6022 212.097 86.1611 210.368 83.7024C209.73 82.8064 208.978 81.7689 208.099 80.6166L192.737 93.2253C193.543 94.1223 194.249 94.9516 194.848 95.6595Z" fill="url(#paint0_linear_64_263)"/>
<path d="M24.8531 98.6595C23.1949 100.628 22.2896 101.794 22.2896 101.794C20.8102 103.7 18.7103 105.029 16.3539 105.549C13.9975 106.069 11.5333 105.747 9.3887 104.64C4.7453 102.118 3.21782 95.7946 6.65397 90.6022C6.65397 90.6022 7.60422 89.1611 9.33319 86.7024C9.97165 85.8064 10.7233 84.7689 11.6017 83.6166L26.9645 96.2253C26.1583 97.1223 25.4524 97.9516 24.8531 98.6595Z" fill="url(#paint1_linear_64_263)"/>
<path d="M124.449 6.04145L125 12.2664C125 12.2664 118.375 25 109.5 25C100.625 25 94 12.2664 94 12.2664L94.5508 6.04145C94.6959 4.38309 95.4042 2.84383 96.5367 1.726C97.6691 0.608165 99.1439 -0.00746444 100.671 6.83185e-05H118.39C119.907 0.00913221 121.366 0.632199 122.486 1.74843C123.605 2.86466 124.305 4.39455 124.449 6.04145V6.04145Z" fill="#FFC892"/>
<defs>
<filter id="filter0_d_64_263" x="5.71875" y="16.873" width="89.0195" height="89.3145" filterUnits="userSpaceOnUse" color-interpolation-filters="sRGB">
<feFlood flood-opacity="0" result="BackgroundImageFix"/>
<feColorMatrix in="SourceAlpha" type="matrix" values="0 0 0 0 0 0 0 0 0 0 0 0 0 0 0 0 0 0 127 0" result="hardAlpha"/>
<feOffset dy="4"/>
<feGaussianBlur stdDeviation="2"/>
<feComposite in2="hardAlpha" operator="out"/>
<feColorMatrix type="matrix" values="0 0 0 0 0 0 0 0 0 0 0 0 0 0 0 0 0 0 0.25 0"/>
<feBlend mode="normal" in2="BackgroundImageFix" result="effect1_dropShadow_64_263"/>
<feBlend mode="normal" in="SourceGraphic" in2="effect1_dropShadow_64_263" result="shape"/>
</filter>
<linearGradient id="paint0_linear_64_263" x1="165.345" y1="80.9194" x2="202.456" y2="99.753" gradientUnits="userSpaceOnUse">
<stop stop-color="#FFC892"/>
<stop offset="1" stop-color="#FFC892"/>
</linearGradient>
<linearGradient id="paint1_linear_64_263" x1="54.3566" y1="83.9194" x2="17.2453" y2="102.753" gradientUnits="userSpaceOnUse">
<stop stop-color="#FFC892"/>
<stop offset="1" stop-color="#FFC892"/>
</linearGradient>
</defs>
</svg>
