<svg width="150" height="146" viewBox="0 0 150 146" fill="none" xmlns="http://www.w3.org/2000/svg">
<path d="M45.1852 39.6801C43.1372 38.1441 41.2001 35.1733 41.2001 30.8C32.2852 56.6956 27.4757 108.278 41.2001 145.2C33.0569 144.96 7.36099 143.104 1.98496 125.44C-4.73509 103.36 5.73799 25.7492 31.4251 10.24C48.3853 -6.08766e-06 57.3453 -8.62764e-06 74.9454 1.5854e-08C92.5455 -8.61174e-06 101.506 -4.56178e-06 118.466 10.24C144.153 25.7492 154.735 103.36 148.015 125.44C142.639 143.104 116.943 144.96 108.8 145.2C122.525 108.278 117.715 56.6956 108.8 30.8C108.8 35.1733 106.863 38.1441 104.815 39.6801C102.767 41.2161 84.8655 44.1601 75.2655 44.1601C65.6654 44.1601 47.2332 41.2161 45.1852 39.6801Z" fill="#754114"/>
</svg>
