<svg width="171" height="134" viewBox="0 0 171 134" fill="none" xmlns="http://www.w3.org/2000/svg">
<ellipse cx="17.6" cy="76.2" rx="17.6" ry="15.2" fill="#FBB985"/>
<ellipse cx="152.799" cy="76.2" rx="17.6" ry="15.2" fill="#FBB985"/>
<path fill-rule="evenodd" clip-rule="evenodd" d="M84.1999 0C59.3999 0 18.2 8.96 18.2 65.6C18.2871 65.6 18.3732 65.6 18.4584 65.6C16.9822 74.445 16.5276 83.22 17.5554 90.8C20.1154 109.68 44.4887 124 56.3553 128.8C60.222 130.4 71.3153 133.6 84.7552 133.6C98.1952 133.6 109.289 130.4 113.155 128.8C125.022 124 149.395 109.68 151.955 90.8C152.991 83.1569 152.513 74.3059 151 65.3933C150.899 8.93819 109.77 0 84.9999 0H84.1999Z" fill="#FFC892"/>
<ellipse cx="54.6" cy="65.6" rx="11.6" ry="15.6" fill="#8C501D"/>
<ellipse cx="115.401" cy="65.6" rx="11.6" ry="15.6" fill="#8C501D"/>
<circle cx="51.4" cy="59.2008" r="4.4" fill="white"/>
<circle cx="112.201" cy="59.2008" r="4.4" fill="white"/>
<ellipse cx="59.4004" cy="71.5992" rx="2" ry="2.4" fill="white"/>
<ellipse cx="120.199" cy="71.5992" rx="2" ry="2.4" fill="white"/>
<path d="M42.1992 52.4004C42.1992 52.9337 42.7592 54.9604 43.3992 55.6004C44.1992 56.4004 45.3992 56.8004 46.5992 56.4004" stroke="#8C501D" stroke-width="1.6" stroke-linecap="round"/>
<path d="M103 52.4004C103 52.9337 103.56 54.9604 104.2 55.6004C105 56.4004 106.2 56.8004 107.4 56.4004" stroke="#8C501D" stroke-width="1.6" stroke-linecap="round"/>
<ellipse cx="85.6004" cy="85.2008" rx="7.2" ry="4.4" fill="#FF7E36"/>
<path d="M60 98C62.3333 100.667 68.4 106 74 106C79.6 106 84 102.667 85.5 101C87 102.667 91.4 106 97 106C102.6 106 108.667 100.667 111 98" stroke="#8C501D" stroke-width="3" stroke-linecap="round" stroke-linejoin="round"/>
</svg>
