<svg width="215" height="120" viewBox="0 0 215 120" fill="none" xmlns="http://www.w3.org/2000/svg">
<mask id="mask0_101_680" style="mask-type:alpha" maskUnits="userSpaceOnUse" x="30" y="8" width="155" height="106">
<path d="M153.957 62.7895C153.622 60.9159 153.434 60.0087 153.5 60.4996C153.618 61.3905 153.771 62.1474 153.957 62.7895Z" fill="black"/>
<path d="M80.4995 9.99965C48.4995 -0.000346184 30.3329 39.7896 32.4995 49.2896C31.6662 49.9562 29.9995 50.2896 30.9995 52.2896C31.4995 55.7896 36.3378 61.6789 38.9995 63.4997C41.4995 65.2098 47.9994 66.9997 50.9994 67.9997C52.1994 68.7997 52.8328 66.9997 52.9994 65.9997C56.5243 65.9997 59.6648 67.5527 61.042 62.7896C61.377 60.9159 61.5646 60.0088 61.4995 60.4997C61.3813 61.3906 61.2277 62.1475 61.042 62.7896C59.4636 71.6174 54.6122 101.9 57.4995 108.5L58.4995 113.5C59.9995 113.5 63.9994 115 63.9994 111C63.9994 115 74.9994 115 74.9994 111C74.9994 115 85.4994 115 85.4994 111C85.4994 115 95.9995 115 95.9995 111C95.9995 115 106.999 115 106.999 111C106.999 115 118.499 115 118.499 111C118.499 115 129.5 115 129.5 111C129.5 115 140.499 115 140.499 111C140.499 115 150.999 115 150.999 111C150.999 115 154.999 113.5 156.499 113.5L157.499 108.5C160.387 101.9 155.535 71.6173 153.957 62.7895C153.771 62.1474 153.618 61.3905 153.5 60.4996C153.434 60.0087 153.622 60.9159 153.957 62.7895C155.334 67.5527 158.475 65.9996 162 65.9996C162.166 66.9996 162.8 68.7996 164 67.9996C167 66.9996 173.5 65.2097 176 63.4996C178.661 61.6789 183.499 55.7895 183.999 52.2895C184.999 50.2895 183.333 49.9562 182.499 49.2895C184.666 39.7895 166.5 -0.00039196 134.5 9.99961C128.333 12.4996 118 17.9996 107.499 23.9996C97.4995 17.9996 86.6661 12.4997 80.4995 9.99965Z" fill="black"/>
</mask>
<g mask="url(#mask0_101_680)">
<rect width="213" height="163" fill="#ABCDFF"/>
<g filter="url(#filter0_d_101_680)">
<path d="M63.8958 4.53469C69.5908 -2.10939 95.5343 14.4217 107.794 23.5178C108.287 25.1813 108.322 28.2712 104.525 27.3221C104.723 29.2995 104.17 32.7797 100.373 30.8814C100.772 33.091 99.6659 35.9058 95.6272 33.2543C95.0339 35.0339 89.9976 36.6752 89.9976 31.6184C88.4157 33.144 85.1332 34.6902 84.6586 28.67C83.0782 29.721 79.917 30.5178 79.9152 25.2974C78.204 26.2861 74.9981 26.9584 75.8641 21.7381C74.2476 22.3055 71.2518 22.3211 72.2009 17.8435C70.5165 18.153 67.475 17.7042 68.7844 13.433C67.2839 13.6307 64.6595 13.0771 66.1657 9.28046C64.4204 9.28046 61.523 8.3313 63.8958 4.53469Z" fill="white"/>
<path d="M151.03 4.53469C145.335 -2.10939 119.391 14.4217 107.132 23.5178C106.639 25.1813 106.604 28.2712 110.4 27.3221C110.203 29.2995 110.756 32.7797 114.553 30.8814C114.153 33.091 115.26 35.9058 119.299 33.2543C119.892 35.0339 124.928 36.6752 124.928 31.6184C126.51 33.144 129.793 34.6902 130.267 28.67C131.848 29.721 135.009 30.5178 135.011 25.2974C136.722 26.2861 139.928 26.9584 139.062 21.7381C140.678 22.3055 143.674 22.3211 142.725 17.8435C144.409 18.153 147.451 17.7042 146.141 13.433C147.642 13.6307 150.266 13.0771 148.76 9.28046C150.505 9.28046 153.403 8.3313 151.03 4.53469Z" fill="white"/>
</g>
<g filter="url(#filter1_d_101_680)">
<path d="M98 108C95.2 109.6 68.8333 108.666 56 108L57 114.5H98C99.1667 111.666 100.8 106.4 98 108Z" fill="white"/>
</g>
<g filter="url(#filter2_d_101_680)">
<path d="M120.547 108C123.347 109.6 149.714 108.666 162.547 108L161.547 114.5H120.547C119.38 111.666 117.747 106.4 120.547 108Z" fill="white"/>
</g>
<g filter="url(#filter3_d_101_680)">
<path d="M119.5 103.232C118.3 102.032 113.167 105.732 110 108.732V116.232C112.667 117.399 117.3 119.232 120.5 119.232C125 116.232 121 104.732 119.5 103.232Z" fill="white"/>
</g>
<g filter="url(#filter4_d_101_680)">
<path d="M118.5 84.2319C117.3 83.0319 112.167 86.7319 109 89.7319V97.2319C111.667 98.3986 116.3 100.232 119.5 100.232C124 97.232 120 85.7319 118.5 84.2319Z" fill="white"/>
</g>
<g filter="url(#filter5_d_101_680)">
<path d="M116.5 62.2319C115.3 61.0319 110.167 64.7319 107 67.7319V75.2319C109.667 76.3986 114.3 78.232 117.5 78.232C122 75.232 118 63.7319 116.5 62.2319Z" fill="white"/>
</g>
<g filter="url(#filter6_d_101_680)">
<path d="M114.306 41.8455C112.942 40.8351 108.409 45.25 105.718 48.6832L106.822 56.1016C109.631 56.8633 114.484 57.995 117.649 57.5242C121.658 53.8948 116.01 43.1085 114.306 41.8455Z" fill="white"/>
</g>
<g filter="url(#filter7_d_101_680)">
<path d="M121 55.2917C119.8 54.0917 114.167 56.7917 111 59.7917C111 60.5917 111.5 64.3569 111.5 66.5236C114.167 67.6903 117.8 68.7917 121 68.7917C125.5 65.7917 122.5 56.7917 121 55.2917Z" fill="white"/>
</g>
<g filter="url(#filter8_d_101_680)">
<path d="M119.08 49.7674C118.11 50.7245 113.559 48.571 111 46.1782C111 45.5402 111.404 42.5371 111.404 40.809C113.559 39.8784 116.494 39 119.08 39C122.716 41.3927 120.292 48.571 119.08 49.7674Z" fill="white"/>
</g>
<g filter="url(#filter9_d_101_680)">
<path d="M123.5 93.2319C122.3 92.0319 117.167 95.7319 114 98.7319V106.232C116.667 107.399 121.3 109.232 124.5 109.232C129 106.232 125 94.7319 123.5 93.2319Z" fill="white"/>
</g>
<g filter="url(#filter10_d_101_680)">
<path d="M122 75.2917C120.8 74.0917 115.167 76.7917 112 79.7917C112 80.5917 112.5 84.3569 112.5 86.5236C115.167 87.6903 118.8 88.7917 122 88.7917C126.5 85.7917 123.5 76.7917 122 75.2917Z" fill="white"/>
</g>
<g filter="url(#filter11_d_101_680)">
<path d="M96.0742 103.232C97.2742 102.032 102.408 105.732 105.574 108.732V116.232C102.908 117.399 98.2742 119.232 95.0742 119.232C90.5742 116.232 94.5742 104.732 96.0742 103.232Z" fill="white"/>
</g>
<g filter="url(#filter12_d_101_680)">
<path d="M97.0742 84.2319C98.2742 83.0319 103.408 86.7319 106.574 89.7319V97.2319C103.908 98.3986 99.2742 100.232 96.0742 100.232C91.5742 97.232 95.5742 85.7319 97.0742 84.2319Z" fill="white"/>
</g>
<g filter="url(#filter13_d_101_680)">
<path d="M99.0742 62.2319C100.274 61.0319 105.408 64.7319 108.574 67.7319V75.2319C105.908 76.3986 101.274 78.232 98.0742 78.232C93.5742 75.232 97.5742 63.7319 99.0742 62.2319Z" fill="white"/>
</g>
<g filter="url(#filter14_d_101_680)">
<path d="M101.268 41.8455C102.632 40.8351 107.165 45.25 109.856 48.6832L108.753 56.1016C105.943 56.8633 101.091 57.995 97.9254 57.5242C93.9158 53.8948 99.5641 43.1085 101.268 41.8455Z" fill="white"/>
</g>
<g filter="url(#filter15_d_101_680)">
<path d="M94.5742 55.2917C95.7742 54.0917 101.408 56.7917 104.574 59.7917C104.574 60.5917 104.074 64.3569 104.074 66.5236C101.408 67.6903 97.7742 68.7917 94.5742 68.7917C90.0742 65.7917 93.0742 56.7917 94.5742 55.2917Z" fill="white"/>
</g>
<g filter="url(#filter16_d_101_680)">
<path d="M96.4945 49.7674C97.4641 50.7245 102.016 48.571 104.574 46.1782C104.574 45.5402 104.17 42.5371 104.17 40.809C102.016 39.8784 99.08 39 96.4945 39C92.8586 41.3927 95.2826 48.571 96.4945 49.7674Z" fill="white"/>
</g>
<g filter="url(#filter17_d_101_680)">
<path d="M92.0742 93.2319C93.2742 92.0319 98.4076 95.7319 101.574 98.7319V106.232C98.9076 107.399 94.2742 109.232 91.0742 109.232C86.5742 106.232 90.5742 94.7319 92.0742 93.2319Z" fill="white"/>
</g>
<g filter="url(#filter18_d_101_680)">
<path d="M93.5742 75.2917C94.7742 74.0917 100.408 76.7917 103.574 79.7917C103.574 80.5917 103.074 84.3569 103.074 86.5236C100.408 87.6903 96.7742 88.7917 93.5742 88.7917C89.0742 85.7917 92.0742 76.7917 93.5742 75.2917Z" fill="white"/>
</g>
<g filter="url(#filter19_d_101_680)">
<path d="M100.5 120.5C96.8999 113.7 102 56 105 28H110.5C113.5 56 118.6 113.7 115 120.5H100.5Z" fill="white"/>
</g>
<g filter="url(#filter20_d_101_680)">
<path d="M112 27.0727C112 28.5273 109.985 29.2675 107.5 29.2675C105.015 29.2675 103 28.5273 103 27.0727C103 25.6181 105.015 24 107.5 24C109.985 24 112 25.6181 112 27.0727Z" fill="#1B2581"/>
<path d="M94.4996 69.6509C92.0996 66.8416 100.166 41.2651 104.5 28.828C105 27.8037 106.1 26.3698 106.5 28.828C106.9 31.2861 102.333 58.5307 99.9995 71.8457C98.7995 72.548 95.8329 70.6751 94.4996 69.6509Z" fill="#1B2581"/>
<path d="M86 37.1678C86 34.0073 98.3333 28.8276 104.5 26.6328L105.5 27.9497C106.3 29.7055 98.5 40.2404 93 44.1911C90 44.1911 86 40.3282 86 37.1678Z" fill="#1B2581"/>
<path d="M121.024 69.6509C123.424 66.8416 115.357 41.2651 111.024 28.828C110.524 27.8037 109.424 26.3698 109.024 28.828C108.624 31.2861 113.191 58.5307 115.524 71.8457C116.724 72.548 119.691 70.6751 121.024 69.6509Z" fill="#1B2581"/>
<path d="M129.525 37.1678C129.525 34.0073 117.192 28.8276 111.025 26.6328L110.025 27.9497C109.225 29.7055 117.025 40.2404 122.525 44.1911C125.525 44.1911 129.525 40.3282 129.525 37.1678Z" fill="#1B2581"/>
</g>
<g filter="url(#filter21_d_101_680)">
<circle cx="108" cy="47" r="2" fill="#FFECEC"/>
</g>
<g filter="url(#filter22_d_101_680)">
<circle cx="108" cy="64" r="2" fill="#FFECEC"/>
</g>
<g filter="url(#filter23_d_101_680)">
<circle cx="108" cy="81" r="2" fill="#FFECEC"/>
</g>
<g filter="url(#filter24_d_101_680)">
<circle cx="108" cy="98" r="2" fill="#FFECEC"/>
</g>
<g filter="url(#filter25_d_101_680)">
<path d="M41.5 61C38.3 59 34.1667 52.1667 32.5 49L29 52L37.5 64.5L52 69L54 67L53 66C50.5 65.1667 44.7 63 41.5 61Z" fill="white"/>
</g>
<g filter="url(#filter26_d_101_680)">
<path d="M173.5 61C176.7 59 180.833 52.1667 182.5 49L186 52L177.5 64.5L163 69L161 67L162 66C164.5 65.1667 170.3 63 173.5 61Z" fill="white"/>
</g>
</g>
<defs>
<filter id="filter0_d_101_680" x="60" y="1" width="94.9258" height="38" filterUnits="userSpaceOnUse" color-interpolation-filters="sRGB">
<feFlood flood-opacity="0" result="BackgroundImageFix"/>
<feColorMatrix in="SourceAlpha" type="matrix" values="0 0 0 0 0 0 0 0 0 0 0 0 0 0 0 0 0 0 127 0" result="hardAlpha"/>
<feOffset dy="1"/>
<feGaussianBlur stdDeviation="1.5"/>
<feColorMatrix type="matrix" values="0 0 0 0 0.891667 0 0 0 0 0.390104 0 0 0 0 0.390104 0 0 0 0.4 0"/>
<feBlend mode="normal" in2="BackgroundImageFix" result="effect1_dropShadow_101_680"/>
<feBlend mode="normal" in="SourceGraphic" in2="effect1_dropShadow_101_680" result="shape"/>
</filter>
<filter id="filter1_d_101_680" x="53" y="104.703" width="49.5469" height="12.7969" filterUnits="userSpaceOnUse" color-interpolation-filters="sRGB">
<feFlood flood-opacity="0" result="BackgroundImageFix"/>
<feColorMatrix in="SourceAlpha" type="matrix" values="0 0 0 0 0 0 0 0 0 0 0 0 0 0 0 0 0 0 127 0" result="hardAlpha"/>
<feOffset/>
<feGaussianBlur stdDeviation="1.5"/>
<feColorMatrix type="matrix" values="0 0 0 0 0.933333 0 0 0 0 0.388889 0 0 0 0 0.388889 0 0 0 0.6 0"/>
<feBlend mode="normal" in2="BackgroundImageFix" result="effect1_dropShadow_101_680"/>
<feBlend mode="normal" in="SourceGraphic" in2="effect1_dropShadow_101_680" result="shape"/>
</filter>
<filter id="filter2_d_101_680" x="116" y="104.703" width="49.5469" height="12.7969" filterUnits="userSpaceOnUse" color-interpolation-filters="sRGB">
<feFlood flood-opacity="0" result="BackgroundImageFix"/>
<feColorMatrix in="SourceAlpha" type="matrix" values="0 0 0 0 0 0 0 0 0 0 0 0 0 0 0 0 0 0 127 0" result="hardAlpha"/>
<feOffset/>
<feGaussianBlur stdDeviation="1.5"/>
<feColorMatrix type="matrix" values="0 0 0 0 0.933333 0 0 0 0 0.388889 0 0 0 0 0.388889 0 0 0 0.6 0"/>
<feBlend mode="normal" in2="BackgroundImageFix" result="effect1_dropShadow_101_680"/>
<feBlend mode="normal" in="SourceGraphic" in2="effect1_dropShadow_101_680" result="shape"/>
</filter>
<filter id="filter3_d_101_680" x="106" y="101" width="20.5742" height="24.2324" filterUnits="userSpaceOnUse" color-interpolation-filters="sRGB">
<feFlood flood-opacity="0" result="BackgroundImageFix"/>
<feColorMatrix in="SourceAlpha" type="matrix" values="0 0 0 0 0 0 0 0 0 0 0 0 0 0 0 0 0 0 127 0" result="hardAlpha"/>
<feOffset dy="2"/>
<feGaussianBlur stdDeviation="2"/>
<feColorMatrix type="matrix" values="0 0 0 0 0.8875 0 0 0 0 0.292135 0 0 0 0 0.292135 0 0 0 0.3 0"/>
<feBlend mode="normal" in2="BackgroundImageFix" result="effect1_dropShadow_101_680"/>
<feBlend mode="normal" in="SourceGraphic" in2="effect1_dropShadow_101_680" result="shape"/>
</filter>
<filter id="filter4_d_101_680" x="105" y="82" width="20.5742" height="24.2324" filterUnits="userSpaceOnUse" color-interpolation-filters="sRGB">
<feFlood flood-opacity="0" result="BackgroundImageFix"/>
<feColorMatrix in="SourceAlpha" type="matrix" values="0 0 0 0 0 0 0 0 0 0 0 0 0 0 0 0 0 0 127 0" result="hardAlpha"/>
<feOffset dy="2"/>
<feGaussianBlur stdDeviation="2"/>
<feColorMatrix type="matrix" values="0 0 0 0 0.8875 0 0 0 0 0.292135 0 0 0 0 0.292135 0 0 0 0.3 0"/>
<feBlend mode="normal" in2="BackgroundImageFix" result="effect1_dropShadow_101_680"/>
<feBlend mode="normal" in="SourceGraphic" in2="effect1_dropShadow_101_680" result="shape"/>
</filter>
<filter id="filter5_d_101_680" x="103" y="60" width="20.5742" height="24.2324" filterUnits="userSpaceOnUse" color-interpolation-filters="sRGB">
<feFlood flood-opacity="0" result="BackgroundImageFix"/>
<feColorMatrix in="SourceAlpha" type="matrix" values="0 0 0 0 0 0 0 0 0 0 0 0 0 0 0 0 0 0 127 0" result="hardAlpha"/>
<feOffset dy="2"/>
<feGaussianBlur stdDeviation="2"/>
<feColorMatrix type="matrix" values="0 0 0 0 0.8875 0 0 0 0 0.292135 0 0 0 0 0.292135 0 0 0 0.3 0"/>
<feBlend mode="normal" in2="BackgroundImageFix" result="effect1_dropShadow_101_680"/>
<feBlend mode="normal" in="SourceGraphic" in2="effect1_dropShadow_101_680" result="shape"/>
</filter>
<filter id="filter6_d_101_680" x="101.719" y="39.6992" width="21.3398" height="23.9355" filterUnits="userSpaceOnUse" color-interpolation-filters="sRGB">
<feFlood flood-opacity="0" result="BackgroundImageFix"/>
<feColorMatrix in="SourceAlpha" type="matrix" values="0 0 0 0 0 0 0 0 0 0 0 0 0 0 0 0 0 0 127 0" result="hardAlpha"/>
<feOffset dy="2"/>
<feGaussianBlur stdDeviation="2"/>
<feColorMatrix type="matrix" values="0 0 0 0 0.8875 0 0 0 0 0.292135 0 0 0 0 0.292135 0 0 0 0.3 0"/>
<feBlend mode="normal" in2="BackgroundImageFix" result="effect1_dropShadow_101_680"/>
<feBlend mode="normal" in="SourceGraphic" in2="effect1_dropShadow_101_680" result="shape"/>
</filter>
<filter id="filter7_d_101_680" x="107" y="53" width="20.377" height="21.791" filterUnits="userSpaceOnUse" color-interpolation-filters="sRGB">
<feFlood flood-opacity="0" result="BackgroundImageFix"/>
<feColorMatrix in="SourceAlpha" type="matrix" values="0 0 0 0 0 0 0 0 0 0 0 0 0 0 0 0 0 0 127 0" result="hardAlpha"/>
<feOffset dy="2"/>
<feGaussianBlur stdDeviation="2"/>
<feColorMatrix type="matrix" values="0 0 0 0 0.8875 0 0 0 0 0.292135 0 0 0 0 0.292135 0 0 0 0.3 0"/>
<feBlend mode="normal" in2="BackgroundImageFix" result="effect1_dropShadow_101_680"/>
<feBlend mode="normal" in="SourceGraphic" in2="effect1_dropShadow_101_680" result="shape"/>
</filter>
<filter id="filter8_d_101_680" x="107" y="37" width="18" height="19" filterUnits="userSpaceOnUse" color-interpolation-filters="sRGB">
<feFlood flood-opacity="0" result="BackgroundImageFix"/>
<feColorMatrix in="SourceAlpha" type="matrix" values="0 0 0 0 0 0 0 0 0 0 0 0 0 0 0 0 0 0 127 0" result="hardAlpha"/>
<feOffset dy="2"/>
<feGaussianBlur stdDeviation="2"/>
<feColorMatrix type="matrix" values="0 0 0 0 0.8875 0 0 0 0 0.292135 0 0 0 0 0.292135 0 0 0 0.3 0"/>
<feBlend mode="normal" in2="BackgroundImageFix" result="effect1_dropShadow_101_680"/>
<feBlend mode="normal" in="SourceGraphic" in2="effect1_dropShadow_101_680" result="shape"/>
</filter>
<filter id="filter9_d_101_680" x="110" y="91" width="20.5742" height="24.2324" filterUnits="userSpaceOnUse" color-interpolation-filters="sRGB">
<feFlood flood-opacity="0" result="BackgroundImageFix"/>
<feColorMatrix in="SourceAlpha" type="matrix" values="0 0 0 0 0 0 0 0 0 0 0 0 0 0 0 0 0 0 127 0" result="hardAlpha"/>
<feOffset dy="2"/>
<feGaussianBlur stdDeviation="2"/>
<feColorMatrix type="matrix" values="0 0 0 0 0.8875 0 0 0 0 0.292135 0 0 0 0 0.292135 0 0 0 0.3 0"/>
<feBlend mode="normal" in2="BackgroundImageFix" result="effect1_dropShadow_101_680"/>
<feBlend mode="normal" in="SourceGraphic" in2="effect1_dropShadow_101_680" result="shape"/>
</filter>
<filter id="filter10_d_101_680" x="108" y="73" width="20.377" height="21.791" filterUnits="userSpaceOnUse" color-interpolation-filters="sRGB">
<feFlood flood-opacity="0" result="BackgroundImageFix"/>
<feColorMatrix in="SourceAlpha" type="matrix" values="0 0 0 0 0 0 0 0 0 0 0 0 0 0 0 0 0 0 127 0" result="hardAlpha"/>
<feOffset dy="2"/>
<feGaussianBlur stdDeviation="2"/>
<feColorMatrix type="matrix" values="0 0 0 0 0.8875 0 0 0 0 0.292135 0 0 0 0 0.292135 0 0 0 0.3 0"/>
<feBlend mode="normal" in2="BackgroundImageFix" result="effect1_dropShadow_101_680"/>
<feBlend mode="normal" in="SourceGraphic" in2="effect1_dropShadow_101_680" result="shape"/>
</filter>
<filter id="filter11_d_101_680" x="89" y="101" width="20.5742" height="24.2324" filterUnits="userSpaceOnUse" color-interpolation-filters="sRGB">
<feFlood flood-opacity="0" result="BackgroundImageFix"/>
<feColorMatrix in="SourceAlpha" type="matrix" values="0 0 0 0 0 0 0 0 0 0 0 0 0 0 0 0 0 0 127 0" result="hardAlpha"/>
<feOffset dy="2"/>
<feGaussianBlur stdDeviation="2"/>
<feColorMatrix type="matrix" values="0 0 0 0 0.8875 0 0 0 0 0.292135 0 0 0 0 0.292135 0 0 0 0.3 0"/>
<feBlend mode="normal" in2="BackgroundImageFix" result="effect1_dropShadow_101_680"/>
<feBlend mode="normal" in="SourceGraphic" in2="effect1_dropShadow_101_680" result="shape"/>
</filter>
<filter id="filter12_d_101_680" x="90" y="82" width="20.5742" height="24.2324" filterUnits="userSpaceOnUse" color-interpolation-filters="sRGB">
<feFlood flood-opacity="0" result="BackgroundImageFix"/>
<feColorMatrix in="SourceAlpha" type="matrix" values="0 0 0 0 0 0 0 0 0 0 0 0 0 0 0 0 0 0 127 0" result="hardAlpha"/>
<feOffset dy="2"/>
<feGaussianBlur stdDeviation="2"/>
<feColorMatrix type="matrix" values="0 0 0 0 0.8875 0 0 0 0 0.292135 0 0 0 0 0.292135 0 0 0 0.3 0"/>
<feBlend mode="normal" in2="BackgroundImageFix" result="effect1_dropShadow_101_680"/>
<feBlend mode="normal" in="SourceGraphic" in2="effect1_dropShadow_101_680" result="shape"/>
</filter>
<filter id="filter13_d_101_680" x="92" y="60" width="20.5742" height="24.2324" filterUnits="userSpaceOnUse" color-interpolation-filters="sRGB">
<feFlood flood-opacity="0" result="BackgroundImageFix"/>
<feColorMatrix in="SourceAlpha" type="matrix" values="0 0 0 0 0 0 0 0 0 0 0 0 0 0 0 0 0 0 127 0" result="hardAlpha"/>
<feOffset dy="2"/>
<feGaussianBlur stdDeviation="2"/>
<feColorMatrix type="matrix" values="0 0 0 0 0.8875 0 0 0 0 0.292135 0 0 0 0 0.292135 0 0 0 0.3 0"/>
<feBlend mode="normal" in2="BackgroundImageFix" result="effect1_dropShadow_101_680"/>
<feBlend mode="normal" in="SourceGraphic" in2="effect1_dropShadow_101_680" result="shape"/>
</filter>
<filter id="filter14_d_101_680" x="92.5156" y="39.6992" width="21.3398" height="23.9355" filterUnits="userSpaceOnUse" color-interpolation-filters="sRGB">
<feFlood flood-opacity="0" result="BackgroundImageFix"/>
<feColorMatrix in="SourceAlpha" type="matrix" values="0 0 0 0 0 0 0 0 0 0 0 0 0 0 0 0 0 0 127 0" result="hardAlpha"/>
<feOffset dy="2"/>
<feGaussianBlur stdDeviation="2"/>
<feColorMatrix type="matrix" values="0 0 0 0 0.8875 0 0 0 0 0.292135 0 0 0 0 0.292135 0 0 0 0.3 0"/>
<feBlend mode="normal" in2="BackgroundImageFix" result="effect1_dropShadow_101_680"/>
<feBlend mode="normal" in="SourceGraphic" in2="effect1_dropShadow_101_680" result="shape"/>
</filter>
<filter id="filter15_d_101_680" x="88.1973" y="53" width="20.377" height="21.791" filterUnits="userSpaceOnUse" color-interpolation-filters="sRGB">
<feFlood flood-opacity="0" result="BackgroundImageFix"/>
<feColorMatrix in="SourceAlpha" type="matrix" values="0 0 0 0 0 0 0 0 0 0 0 0 0 0 0 0 0 0 127 0" result="hardAlpha"/>
<feOffset dy="2"/>
<feGaussianBlur stdDeviation="2"/>
<feColorMatrix type="matrix" values="0 0 0 0 0.8875 0 0 0 0 0.292135 0 0 0 0 0.292135 0 0 0 0.3 0"/>
<feBlend mode="normal" in2="BackgroundImageFix" result="effect1_dropShadow_101_680"/>
<feBlend mode="normal" in="SourceGraphic" in2="effect1_dropShadow_101_680" result="shape"/>
</filter>
<filter id="filter16_d_101_680" x="90.5742" y="37" width="18" height="19" filterUnits="userSpaceOnUse" color-interpolation-filters="sRGB">
<feFlood flood-opacity="0" result="BackgroundImageFix"/>
<feColorMatrix in="SourceAlpha" type="matrix" values="0 0 0 0 0 0 0 0 0 0 0 0 0 0 0 0 0 0 127 0" result="hardAlpha"/>
<feOffset dy="2"/>
<feGaussianBlur stdDeviation="2"/>
<feColorMatrix type="matrix" values="0 0 0 0 0.8875 0 0 0 0 0.292135 0 0 0 0 0.292135 0 0 0 0.3 0"/>
<feBlend mode="normal" in2="BackgroundImageFix" result="effect1_dropShadow_101_680"/>
<feBlend mode="normal" in="SourceGraphic" in2="effect1_dropShadow_101_680" result="shape"/>
</filter>
<filter id="filter17_d_101_680" x="85" y="91" width="20.5742" height="24.2324" filterUnits="userSpaceOnUse" color-interpolation-filters="sRGB">
<feFlood flood-opacity="0" result="BackgroundImageFix"/>
<feColorMatrix in="SourceAlpha" type="matrix" values="0 0 0 0 0 0 0 0 0 0 0 0 0 0 0 0 0 0 127 0" result="hardAlpha"/>
<feOffset dy="2"/>
<feGaussianBlur stdDeviation="2"/>
<feColorMatrix type="matrix" values="0 0 0 0 0.8875 0 0 0 0 0.292135 0 0 0 0 0.292135 0 0 0 0.3 0"/>
<feBlend mode="normal" in2="BackgroundImageFix" result="effect1_dropShadow_101_680"/>
<feBlend mode="normal" in="SourceGraphic" in2="effect1_dropShadow_101_680" result="shape"/>
</filter>
<filter id="filter18_d_101_680" x="87.1973" y="73" width="20.377" height="21.791" filterUnits="userSpaceOnUse" color-interpolation-filters="sRGB">
<feFlood flood-opacity="0" result="BackgroundImageFix"/>
<feColorMatrix in="SourceAlpha" type="matrix" values="0 0 0 0 0 0 0 0 0 0 0 0 0 0 0 0 0 0 127 0" result="hardAlpha"/>
<feOffset dy="2"/>
<feGaussianBlur stdDeviation="2"/>
<feColorMatrix type="matrix" values="0 0 0 0 0.8875 0 0 0 0 0.292135 0 0 0 0 0.292135 0 0 0 0.3 0"/>
<feBlend mode="normal" in2="BackgroundImageFix" result="effect1_dropShadow_101_680"/>
<feBlend mode="normal" in="SourceGraphic" in2="effect1_dropShadow_101_680" result="shape"/>
</filter>
<filter id="filter19_d_101_680" x="94.2617" y="23" width="26.9766" height="102.5" filterUnits="userSpaceOnUse" color-interpolation-filters="sRGB">
<feFlood flood-opacity="0" result="BackgroundImageFix"/>
<feColorMatrix in="SourceAlpha" type="matrix" values="0 0 0 0 0 0 0 0 0 0 0 0 0 0 0 0 0 0 127 0" result="hardAlpha"/>
<feOffset/>
<feGaussianBlur stdDeviation="2.5"/>
<feColorMatrix type="matrix" values="0 0 0 0 0.8625 0 0 0 0 0.355781 0 0 0 0 0.355781 0 0 0 0.3 0"/>
<feBlend mode="normal" in2="BackgroundImageFix" result="effect1_dropShadow_101_680"/>
<feBlend mode="normal" in="SourceGraphic" in2="effect1_dropShadow_101_680" result="shape"/>
</filter>
<filter id="filter20_d_101_680" x="84" y="23" width="47.5254" height="52" filterUnits="userSpaceOnUse" color-interpolation-filters="sRGB">
<feFlood flood-opacity="0" result="BackgroundImageFix"/>
<feColorMatrix in="SourceAlpha" type="matrix" values="0 0 0 0 0 0 0 0 0 0 0 0 0 0 0 0 0 0 127 0" result="hardAlpha"/>
<feOffset dy="1"/>
<feGaussianBlur stdDeviation="1"/>
<feColorMatrix type="matrix" values="0 0 0 0 0.6375 0 0 0 0 0.119531 0 0 0 0 0.335351 0 0 0 0.4 0"/>
<feBlend mode="normal" in2="BackgroundImageFix" result="effect1_dropShadow_101_680"/>
<feBlend mode="normal" in="SourceGraphic" in2="effect1_dropShadow_101_680" result="shape"/>
</filter>
<filter id="filter21_d_101_680" x="105" y="44" width="8" height="8" filterUnits="userSpaceOnUse" color-interpolation-filters="sRGB">
<feFlood flood-opacity="0" result="BackgroundImageFix"/>
<feColorMatrix in="SourceAlpha" type="matrix" values="0 0 0 0 0 0 0 0 0 0 0 0 0 0 0 0 0 0 127 0" result="hardAlpha"/>
<feOffset dx="1" dy="1"/>
<feGaussianBlur stdDeviation="1"/>
<feColorMatrix type="matrix" values="0 0 0 0 1 0 0 0 0 0.670588 0 0 0 0 0.670588 0 0 0 0.7 0"/>
<feBlend mode="normal" in2="BackgroundImageFix" result="effect1_dropShadow_101_680"/>
<feBlend mode="normal" in="SourceGraphic" in2="effect1_dropShadow_101_680" result="shape"/>
</filter>
<filter id="filter22_d_101_680" x="105" y="61" width="8" height="8" filterUnits="userSpaceOnUse" color-interpolation-filters="sRGB">
<feFlood flood-opacity="0" result="BackgroundImageFix"/>
<feColorMatrix in="SourceAlpha" type="matrix" values="0 0 0 0 0 0 0 0 0 0 0 0 0 0 0 0 0 0 127 0" result="hardAlpha"/>
<feOffset dx="1" dy="1"/>
<feGaussianBlur stdDeviation="1"/>
<feColorMatrix type="matrix" values="0 0 0 0 1 0 0 0 0 0.670588 0 0 0 0 0.670588 0 0 0 0.7 0"/>
<feBlend mode="normal" in2="BackgroundImageFix" result="effect1_dropShadow_101_680"/>
<feBlend mode="normal" in="SourceGraphic" in2="effect1_dropShadow_101_680" result="shape"/>
</filter>
<filter id="filter23_d_101_680" x="105" y="78" width="8" height="8" filterUnits="userSpaceOnUse" color-interpolation-filters="sRGB">
<feFlood flood-opacity="0" result="BackgroundImageFix"/>
<feColorMatrix in="SourceAlpha" type="matrix" values="0 0 0 0 0 0 0 0 0 0 0 0 0 0 0 0 0 0 127 0" result="hardAlpha"/>
<feOffset dx="1" dy="1"/>
<feGaussianBlur stdDeviation="1"/>
<feColorMatrix type="matrix" values="0 0 0 0 1 0 0 0 0 0.670588 0 0 0 0 0.670588 0 0 0 0.7 0"/>
<feBlend mode="normal" in2="BackgroundImageFix" result="effect1_dropShadow_101_680"/>
<feBlend mode="normal" in="SourceGraphic" in2="effect1_dropShadow_101_680" result="shape"/>
</filter>
<filter id="filter24_d_101_680" x="105" y="95" width="8" height="8" filterUnits="userSpaceOnUse" color-interpolation-filters="sRGB">
<feFlood flood-opacity="0" result="BackgroundImageFix"/>
<feColorMatrix in="SourceAlpha" type="matrix" values="0 0 0 0 0 0 0 0 0 0 0 0 0 0 0 0 0 0 127 0" result="hardAlpha"/>
<feOffset dx="1" dy="1"/>
<feGaussianBlur stdDeviation="1"/>
<feColorMatrix type="matrix" values="0 0 0 0 1 0 0 0 0 0.670588 0 0 0 0 0.670588 0 0 0 0.7 0"/>
<feBlend mode="normal" in2="BackgroundImageFix" result="effect1_dropShadow_101_680"/>
<feBlend mode="normal" in="SourceGraphic" in2="effect1_dropShadow_101_680" result="shape"/>
</filter>
<filter id="filter25_d_101_680" x="26" y="43" width="33" height="28" filterUnits="userSpaceOnUse" color-interpolation-filters="sRGB">
<feFlood flood-opacity="0" result="BackgroundImageFix"/>
<feColorMatrix in="SourceAlpha" type="matrix" values="0 0 0 0 0 0 0 0 0 0 0 0 0 0 0 0 0 0 127 0" result="hardAlpha"/>
<feOffset dx="1" dy="-2"/>
<feGaussianBlur stdDeviation="2"/>
<feColorMatrix type="matrix" values="0 0 0 0 0.95 0 0 0 0 0.395833 0 0 0 0 0.395833 0 0 0 0.3 0"/>
<feBlend mode="normal" in2="BackgroundImageFix" result="effect1_dropShadow_101_680"/>
<feBlend mode="normal" in="SourceGraphic" in2="effect1_dropShadow_101_680" result="shape"/>
</filter>
<filter id="filter26_d_101_680" x="158" y="43" width="33" height="28" filterUnits="userSpaceOnUse" color-interpolation-filters="sRGB">
<feFlood flood-opacity="0" result="BackgroundImageFix"/>
<feColorMatrix in="SourceAlpha" type="matrix" values="0 0 0 0 0 0 0 0 0 0 0 0 0 0 0 0 0 0 127 0" result="hardAlpha"/>
<feOffset dx="1" dy="-2"/>
<feGaussianBlur stdDeviation="2"/>
<feColorMatrix type="matrix" values="0 0 0 0 0.95 0 0 0 0 0.395833 0 0 0 0 0.395833 0 0 0 0.3 0"/>
<feBlend mode="normal" in2="BackgroundImageFix" result="effect1_dropShadow_101_680"/>
<feBlend mode="normal" in="SourceGraphic" in2="effect1_dropShadow_101_680" result="shape"/>
</filter>
</defs>
</svg>
