<svg width="215" height="120" viewBox="0 0 215 120" fill="none" xmlns="http://www.w3.org/2000/svg">
<g clip-path="url(#clip0_104_801)">
<mask id="mask0_104_801" style="mask-type:alpha" maskUnits="userSpaceOnUse" x="56" y="10" width="103" height="105">
<path d="M107.5 114.5C93.8999 114.5 68 113 57 110.5C56.5051 103.077 64 62 64.9999 57C69.8464 52.163 70.2053 27.4692 70.4999 15C72.8999 13.4 79.6666 11.1667 82.4999 10.5C85 11.1667 90 12.3 90 15.5C90 12.5 98.5 13.3 98.5 16.5C98.5 14 107.5 14 107.5 18C107.5 14 116.5 14.0001 116.5 16.5001C116.5 13.3001 125 12.5001 125 15.5001C125 12.7001 130 11 132.5 10.5C135.333 11.1667 142.6 13.4 145 15C145.167 26.5 146.5 51 150.5 57C153.333 72 159.2 104.5 158 110.5C147 113 121.1 114.5 107.5 114.5Z" fill="#FFFCEA"/>
</mask>
<g mask="url(#mask0_104_801)">
</g>
<mask id="mask1_104_801" style="mask-type:alpha" maskUnits="userSpaceOnUse" x="56" y="10" width="103" height="105">
<path d="M107.5 114.5C93.8999 114.5 68 113 57 110.5C56.5051 103.077 64 62 64.9999 57C67.0407 45.8 74.517 41.3334 78 40.5C79.6 38.1 75.3333 21.8334 73 14C75.4 12.4 79.6666 11.1667 82.4999 10.5C84.5 18 88 34.9 88 38.5C92.5 38.5 102.4 42.2001 108 49C113.6 42.2001 123.5 38.5 128 38.5C128 34.9 131.5 18 133.5 10.5C136.333 11.1667 140.6 12.4 143 14C140.667 21.8333 136.4 38.1 138 40.5C141.483 41.3333 148.959 45.8 151 57C153.833 72 159.2 104.5 158 110.5C147 113 121.1 114.5 107.5 114.5Z" fill="black"/>
</mask>
<g mask="url(#mask1_104_801)">
<rect width="213" height="163" fill="white"/>
</g>
</g>
<defs>
<clipPath id="clip0_104_801">
<rect width="213" height="163" fill="white"/>
</clipPath>
</defs>
</svg>
